<svg width="256" height="112" viewBox="0 0 256 112" fill="none" xmlns="http://www.w3.org/2000/svg">
<ellipse cx="45" cy="98" rx="9" ry="8" fill="url(#paint0_linear)"/>
<path d="M136 47.6304L141 33.1739L136 21" stroke="url(#paint1_linear)"/>
<path d="M136 73.5L141 59.0435L136 46.8696" stroke="url(#paint2_linear)"/>
<path d="M143 47.6304L148 33.1739L143 21" stroke="url(#paint3_linear)"/>
<path d="M143 73.5L148 59.0435L143 46.8696" stroke="url(#paint4_linear)"/>
<path d="M150 47.6304L155 33.1739L150 21" stroke="url(#paint5_linear)"/>
<path d="M150 73.5L155 59.0435L150 46.8696" stroke="url(#paint6_linear)"/>
<path d="M169 60.2754L174 49.8116L169 41" stroke="url(#paint7_linear)"/>
<path d="M169 79L174 68.5362L169 59.7246" stroke="url(#paint8_linear)"/>
<path d="M176 60.2754L181 49.8116L176 41" stroke="url(#paint9_linear)"/>
<path d="M176 79L181 68.5362L176 59.7246" stroke="url(#paint10_linear)"/>
<path d="M183 60.2754L188 49.8116L183 41" stroke="url(#paint11_linear)"/>
<path d="M183 79L188 68.5362L183 59.7246" stroke="url(#paint12_linear)"/>
<ellipse cx="173.5" cy="45.5" rx="19.5" ry="14.5" fill="url(#paint13_linear)"/>
<ellipse cx="28.5" cy="38.5" rx="28.5" ry="25.5" fill="url(#paint14_linear)"/>
<ellipse cx="215.5" cy="86.5" rx="28.5" ry="25.5" fill="url(#paint15_linear)"/>
<path d="M146 37.5C146 58.2107 127.42 75 104.5 75C81.5802 75 63 58.2107 63 37.5C63 16.7893 81.5802 0 104.5 0C127.42 0 146 16.7893 146 37.5Z" fill="url(#paint16_linear)"/>
<path d="M55 52.0462C55 61.4095 47.8366 69 39 69C30.1634 69 23 61.4095 23 52.0462C23 42.6828 23.6847 39 32.5213 39C41.3578 39 55 42.6828 55 52.0462Z" fill="url(#paint17_linear)"/>
<path d="M128 50.3854C128 59.953 113.226 67.7091 93.2702 67.7091C73.3146 67.7091 36.0894 50.8786 36.0894 41.311C36.0894 31.7433 69.8066 33.0615 89.7621 33.0615C122.512 33.0615 128 40.8178 128 50.3854Z" fill="url(#paint18_linear)"/>
<rect x="22.3716" y="45.3961" width="55.5577" height="42.1468" fill="url(#paint19_linear)"/>
<path d="M77.1396 45.9622L125.047 45.9059L125.393 87.4199L77.486 87.4763L77.1396 45.9622Z" fill="url(#paint20_linear)"/>
<path d="M128 50.3854C128 59.953 113.226 67.7091 93.2702 67.7091C73.3146 67.7091 36.0894 50.8786 36.0894 41.311C36.0894 31.7433 69.8066 33.0615 89.7621 33.0615C122.512 33.0615 128 40.8178 128 50.3854Z" fill="url(#paint21_linear)"/>
<rect x="22.3716" y="45.3961" width="55.5577" height="42.1468" fill="url(#paint22_linear)"/>
<path d="M77.9292 43.497L125.836 43.4406L126.183 84.9547L78.2755 85.0111L77.9292 43.497Z" fill="url(#paint23_linear)"/>
<path d="M50.4932 44.3234L98.4004 44.2671L98.7467 85.7811L50.8395 85.8375L50.4932 44.3234Z" fill="url(#paint24_linear)"/>
<ellipse cx="31.9454" cy="47.4621" rx="7.88782" ry="7.02447" fill="url(#paint25_linear)"/>
<ellipse cx="46.3492" cy="47.4621" rx="7.88782" ry="7.02447" fill="url(#paint26_linear)"/>
<path d="M25.4297 50.3546H52.8656V82.5845H25.4297V50.3546Z" fill="url(#paint27_linear)"/>
<ellipse rx="37.6024" ry="8.2287" transform="matrix(0.500602 -0.865678 0.854418 0.519585 227.42 64.2762)" fill="url(#paint28_linear)"/>
<line y1="-1" x2="13.0026" y2="-1" transform="matrix(0.873943 -0.465327 0.444298 0.907058 213.917 73.4594)" stroke="white" stroke-width="2"/>
<line y1="-1" x2="13.0026" y2="-1" transform="matrix(0.873943 -0.465327 0.444298 0.907058 217.909 64.2903)" stroke="white" stroke-width="2"/>
<line y1="-1" x2="13.0026" y2="-1" transform="matrix(0.873943 -0.465327 0.444298 0.907058 223.161 55.2061)" stroke="white" stroke-width="2"/>
<ellipse rx="37.6508" ry="8.21739" transform="matrix(0.00309223 -0.999995 0.999894 -0.0145459 204.555 56.6336)" fill="url(#paint29_linear)"/>
<line y1="-1" x2="13.0099" y2="-1" transform="matrix(0.525306 -0.860101 0.83646 0.533114 197.425 71.6218)" stroke="white" stroke-width="2"/>
<line y1="-1" x2="13.0099" y2="-1" transform="matrix(0.525306 -0.860101 0.83646 0.533114 196.323 61.7148)" stroke="white" stroke-width="2"/>
<line y1="-1" x2="13.0099" y2="-1" transform="matrix(0.525306 -0.860101 0.83646 0.533114 196.355 51.2076)" stroke="white" stroke-width="2"/>
<ellipse rx="37.7268" ry="8.19959" transform="matrix(0.199389 -0.97992 0.980407 0.196982 217.186 57.9373)" fill="url(#paint30_linear)"/>
<line y1="-1" x2="13.0213" y2="-1" transform="matrix(0.6811 -0.733681 0.711738 0.700842 207.28 71.1605)" stroke="white" stroke-width="2"/>
<line y1="-1" x2="13.0213" y2="-1" transform="matrix(0.6811 -0.733681 0.711738 0.700842 208.154 61.1939)" stroke="white" stroke-width="2"/>
<line y1="-1" x2="13.0213" y2="-1" transform="matrix(0.6811 -0.733681 0.711738 0.700842 210.254 50.8768)" stroke="white" stroke-width="2"/>
<path d="M196.893 52.4511L237.927 62.1159L224.085 85.6744L197.893 79.5054L196.893 52.4511Z" fill="url(#paint31_linear)"/>
<ellipse cx="141.5" cy="87.5" rx="64.5" ry="14.5" fill="url(#paint32_linear)"/>
<line x1="116.534" y1="74.1545" x2="135.534" y2="86.1545" stroke="white" stroke-width="2"/>
<line x1="133.534" y1="72.1545" x2="152.534" y2="84.1545" stroke="white" stroke-width="2"/>
<line x1="151.534" y1="72.1545" x2="170.534" y2="84.1545" stroke="white" stroke-width="2"/>
<defs>
<linearGradient id="paint0_linear" x1="45" y1="90" x2="45" y2="106" gradientUnits="userSpaceOnUse">
<stop stop-color="#5200FF" stop-opacity="0.64"/>
<stop offset="1" stop-color="#71FF40" stop-opacity="0.37"/>
</linearGradient>
<linearGradient id="paint1_linear" x1="136" y1="34.3152" x2="141" y2="34.3152" gradientUnits="userSpaceOnUse">
<stop stop-color="white"/>
<stop offset="1" stop-color="#6F6F6F" stop-opacity="0.55"/>
</linearGradient>
<linearGradient id="paint2_linear" x1="136" y1="60.1848" x2="141" y2="60.1848" gradientUnits="userSpaceOnUse">
<stop stop-color="white"/>
<stop offset="1" stop-color="#6F6F6F" stop-opacity="0.55"/>
</linearGradient>
<linearGradient id="paint3_linear" x1="143" y1="34.3152" x2="148" y2="34.3152" gradientUnits="userSpaceOnUse">
<stop stop-color="white"/>
<stop offset="1" stop-color="#6F6F6F" stop-opacity="0.55"/>
</linearGradient>
<linearGradient id="paint4_linear" x1="143" y1="60.1848" x2="148" y2="60.1848" gradientUnits="userSpaceOnUse">
<stop stop-color="white"/>
<stop offset="1" stop-color="#6F6F6F" stop-opacity="0.55"/>
</linearGradient>
<linearGradient id="paint5_linear" x1="150" y1="34.3152" x2="155" y2="34.3152" gradientUnits="userSpaceOnUse">
<stop stop-color="white"/>
<stop offset="1" stop-color="#6F6F6F" stop-opacity="0.55"/>
</linearGradient>
<linearGradient id="paint6_linear" x1="150" y1="60.1848" x2="155" y2="60.1848" gradientUnits="userSpaceOnUse">
<stop stop-color="white"/>
<stop offset="1" stop-color="#6F6F6F" stop-opacity="0.55"/>
</linearGradient>
<linearGradient id="paint7_linear" x1="169" y1="50.6377" x2="174" y2="50.6377" gradientUnits="userSpaceOnUse">
<stop stop-color="#FBFBFB"/>
<stop offset="1" stop-color="#6F6F6F" stop-opacity="0.55"/>
</linearGradient>
<linearGradient id="paint8_linear" x1="169" y1="69.3623" x2="174" y2="69.3623" gradientUnits="userSpaceOnUse">
<stop stop-color="#FBFBFB"/>
<stop offset="1" stop-color="#6F6F6F" stop-opacity="0.55"/>
</linearGradient>
<linearGradient id="paint9_linear" x1="176" y1="50.6377" x2="181" y2="50.6377" gradientUnits="userSpaceOnUse">
<stop stop-color="#FBFBFB"/>
<stop offset="1" stop-color="#6F6F6F" stop-opacity="0.55"/>
</linearGradient>
<linearGradient id="paint10_linear" x1="176" y1="69.3623" x2="181" y2="69.3623" gradientUnits="userSpaceOnUse">
<stop stop-color="#FBFBFB"/>
<stop offset="1" stop-color="#6F6F6F" stop-opacity="0.55"/>
</linearGradient>
<linearGradient id="paint11_linear" x1="183" y1="50.6377" x2="188" y2="50.6377" gradientUnits="userSpaceOnUse">
<stop stop-color="#FBFBFB"/>
<stop offset="1" stop-color="#6F6F6F" stop-opacity="0.55"/>
</linearGradient>
<linearGradient id="paint12_linear" x1="183" y1="69.3623" x2="188" y2="69.3623" gradientUnits="userSpaceOnUse">
<stop stop-color="#FBFBFB"/>
<stop offset="1" stop-color="#6F6F6F" stop-opacity="0.55"/>
</linearGradient>
<linearGradient id="paint13_linear" x1="173.735" y1="31" x2="173.576" y2="60.0004" gradientUnits="userSpaceOnUse">
<stop offset="0.0885417" stop-color="#FFE8AE"/>
<stop offset="0.833333" stop-color="#DC9EEC" stop-opacity="0.2"/>
</linearGradient>
<linearGradient id="paint14_linear" x1="28.5" y1="13" x2="28.5" y2="64" gradientUnits="userSpaceOnUse">
<stop stop-color="#B67DFF"/>
<stop offset="1" stop-color="#7ADDD7" stop-opacity="0"/>
</linearGradient>
<linearGradient id="paint15_linear" x1="215.5" y1="61" x2="215.5" y2="112" gradientUnits="userSpaceOnUse">
<stop stop-color="#B67DFF"/>
<stop offset="1" stop-color="#7ADDD7" stop-opacity="0"/>
</linearGradient>
<linearGradient id="paint16_linear" x1="102.5" y1="-38" x2="124.5" y2="123" gradientUnits="userSpaceOnUse">
<stop offset="0.338542" stop-color="#6532F5"/>
<stop offset="0.598958" stop-color="#FF7CFA" stop-opacity="0.19"/>
</linearGradient>
<linearGradient id="paint17_linear" x1="39" y1="35.0924" x2="39" y2="69" gradientUnits="userSpaceOnUse">
<stop offset="0.645833" stop-color="#FFC683"/>
<stop offset="1" stop-color="#FFF065" stop-opacity="0.79"/>
</linearGradient>
<linearGradient id="paint18_linear" x1="82.0445" y1="33" x2="82.0445" y2="67.7091" gradientUnits="userSpaceOnUse">
<stop stop-color="#FFC683"/>
<stop offset="1" stop-color="#FFF065" stop-opacity="0.79"/>
</linearGradient>
<linearGradient id="paint19_linear" x1="50.1504" y1="45.3961" x2="50.1504" y2="87.5429" gradientUnits="userSpaceOnUse">
<stop offset="0.645833" stop-color="#FFC683"/>
<stop offset="1" stop-color="#FFF065" stop-opacity="0.79"/>
</linearGradient>
<linearGradient id="paint20_linear" x1="101.091" y1="45.6722" x2="101.6" y2="87.708" gradientUnits="userSpaceOnUse">
<stop stop-color="#FFF065" stop-opacity="0"/>
<stop offset="0.0001" stop-color="#FFDE72" stop-opacity="0.423077"/>
<stop offset="0.270833" stop-color="#FFC683"/>
<stop offset="0.786458" stop-color="#FFD478"/>
<stop offset="1" stop-color="#FFF065"/>
</linearGradient>
<linearGradient id="paint21_linear" x1="82.0445" y1="33" x2="82.0445" y2="67.7091" gradientUnits="userSpaceOnUse">
<stop stop-color="#FFC683"/>
<stop offset="1" stop-color="#FFF065" stop-opacity="0.79"/>
</linearGradient>
<linearGradient id="paint22_linear" x1="50.1504" y1="45.3961" x2="50.1504" y2="87.5429" gradientUnits="userSpaceOnUse">
<stop offset="0.645833" stop-color="#FFC683"/>
<stop offset="1" stop-color="#FFF065" stop-opacity="0.79"/>
</linearGradient>
<linearGradient id="paint23_linear" x1="101.881" y1="43.207" x2="102.39" y2="85.2428" gradientUnits="userSpaceOnUse">
<stop stop-color="#FFF065" stop-opacity="0"/>
<stop offset="0.0001" stop-color="#FFDE72" stop-opacity="0.423077"/>
<stop offset="0.270833" stop-color="#FFC683"/>
<stop offset="0.786458" stop-color="#FFD478"/>
<stop offset="1" stop-color="#FFF065"/>
</linearGradient>
<linearGradient id="paint24_linear" x1="74.4446" y1="44.0334" x2="74.9536" y2="86.0693" gradientUnits="userSpaceOnUse">
<stop stop-color="#FFF065" stop-opacity="0"/>
<stop offset="0.0001" stop-color="#FFDE72" stop-opacity="0.423077"/>
<stop offset="0.270833" stop-color="#FFC683"/>
<stop offset="0.786458" stop-color="#FFD478"/>
<stop offset="1" stop-color="#FFF065"/>
</linearGradient>
<linearGradient id="paint25_linear" x1="31.9454" y1="40.4377" x2="31.9454" y2="54.4866" gradientUnits="userSpaceOnUse">
<stop stop-color="#FCFF80"/>
<stop offset="0.5" stop-color="#FDFFAC"/>
<stop offset="0.520833" stop-color="#FDFFA6"/>
<stop offset="0.567708" stop-color="#FCFF72"/>
<stop offset="0.9998" stop-color="#FEFFC9"/>
<stop offset="0.9999" stop-color="#FEFDC4"/>
<stop offset="1" stop-color="#FFF7B3"/>
</linearGradient>
<linearGradient id="paint26_linear" x1="46.3492" y1="40.4377" x2="46.3492" y2="54.4866" gradientUnits="userSpaceOnUse">
<stop stop-color="#FCFF80"/>
<stop offset="0.5" stop-color="#FDFFAC"/>
<stop offset="0.520833" stop-color="#FDFFA6"/>
<stop offset="0.567708" stop-color="#FCFF72"/>
<stop offset="0.9998" stop-color="#FEFFC9"/>
<stop offset="0.9999" stop-color="#FEFDC4"/>
<stop offset="1" stop-color="#FFF7B3"/>
</linearGradient>
<linearGradient id="paint27_linear" x1="39.1476" y1="50.3546" x2="39.1476" y2="82.5845" gradientUnits="userSpaceOnUse">
<stop stop-color="#FCFF80"/>
<stop offset="0.5" stop-color="#FDFFAC"/>
<stop offset="0.520833" stop-color="#FDFFA6"/>
<stop offset="0.567708" stop-color="#FCFF72"/>
<stop offset="0.9998" stop-color="#FEFFC9"/>
<stop offset="0.9999" stop-color="#FEFDC4"/>
<stop offset="1" stop-color="#FFF7B3"/>
</linearGradient>
<linearGradient id="paint28_linear" x1="37.6024" y1="0" x2="37.6024" y2="16.4574" gradientUnits="userSpaceOnUse">
<stop stop-color="#FBFF46"/>
<stop offset="1" stop-color="#FFA337" stop-opacity="0.82"/>
</linearGradient>
<linearGradient id="paint29_linear" x1="37.6508" y1="0" x2="37.6508" y2="16.4348" gradientUnits="userSpaceOnUse">
<stop stop-color="#FBFF46"/>
<stop offset="1" stop-color="#FFA337" stop-opacity="0.82"/>
</linearGradient>
<linearGradient id="paint30_linear" x1="37.7268" y1="0" x2="37.7268" y2="16.3992" gradientUnits="userSpaceOnUse">
<stop stop-color="#FBFF46"/>
<stop offset="1" stop-color="#FFA337" stop-opacity="0.82"/>
</linearGradient>
<linearGradient id="paint31_linear" x1="217.41" y1="57.2835" x2="211.425" y2="82.6927" gradientUnits="userSpaceOnUse">
<stop stop-color="#FF7979"/>
<stop offset="1" stop-color="#D20000" stop-opacity="0.66"/>
</linearGradient>
<linearGradient id="paint32_linear" x1="141.5" y1="73" x2="141.5" y2="102" gradientUnits="userSpaceOnUse">
<stop stop-color="#FDFFA6"/>
<stop offset="1" stop-color="#FFA337" stop-opacity="0.82"/>
</linearGradient>
</defs>
</svg>
