<svg width="168" height="115" viewBox="0 0 168 115" fill="none" xmlns="http://www.w3.org/2000/svg">
<path d="M21 25L38 33V63H21V25Z" fill="#C4C4C4"/>
<path d="M49 14.1064L55 0L66 39H49V14.1064Z" fill="#F1E9E9"/>
<path d="M59.0754 20.9429L69.4506 6.19995L67.3256 54.4232L50.9595 49.8243L59.0754 20.9429Z" fill="#F1E9E9"/>
<path d="M37.2468 23L54.575 3.48635L37.2468 53.9316L21.451 44.0536L37.2468 23Z" fill="#F1E9E9"/>
<ellipse cx="43.9999" cy="31.5" rx="14" ry="10.5" transform="rotate(-12.3597 43.9999 31.5)" fill="#C4C4C4"/>
<ellipse cx="17.8251" cy="30.4794" rx="6.5" ry="13" transform="rotate(-21.5757 17.8251 30.4794)" fill="#A0A0A0"/>
<ellipse cx="13.8251" cy="39.4794" rx="6.5" ry="13" transform="rotate(-38.3241 13.8251 39.4794)" fill="#5E5E5E"/>
<rect x="7" y="37" width="61" height="60" fill="black"/>
<path d="M52 61.035L39.936 36.9757L64.1846 37.0365L52 61.035Z" fill="url(#paint0_linear)"/>
<path d="M13 87.5H62" stroke="#929292" stroke-width="2"/>
<line x1="15.1056" y1="36.5528" x2="21.1056" y2="24.5528" stroke="white" stroke-width="2"/>
<path d="M22 24.5573L55.5 24.5573" stroke="black" stroke-width="2" stroke-linecap="round"/>
<path d="M54.9999 24L64.8517 37.4759" stroke="black" stroke-width="2"/>
<ellipse cx="18" cy="106" rx="10" ry="9" fill="#C4C4C4"/>
<ellipse cx="56" cy="106" rx="10" ry="9" fill="#C4C4C4"/>
<circle cx="17.5" cy="106.5" r="3.5" fill="url(#paint1_linear)"/>
<circle cx="55.5" cy="106.5" r="3.5" fill="url(#paint2_linear)"/>
<circle cx="16" cy="68" r="3" fill="#C4C4C4"/>
<circle cx="58" cy="68" r="3" fill="#C4C4C4"/>
<path d="M51 73.2002C51 78.1507 44.8533 80 38 80C31.1466 80 25 78.1506 25 73.2002C25 68.2498 31.1466 73.2002 38 73.2002C44.8533 73.2002 51 68.2498 51 73.2002Z" fill="url(#paint3_linear)"/>
<path d="M50 73.2002C50 75.146 48.8372 76.5609 46.6583 77.5452C44.45 78.5428 41.3621 79 38 79C34.6379 79 31.55 78.5427 29.3417 77.5452C27.1628 76.5609 26 75.1459 26 73.2002C26 72.6699 26.0848 72.3895 26.1588 72.2514C26.2147 72.1472 26.2753 72.0972 26.389 72.0586C26.5387 72.0078 26.7933 71.9782 27.2062 72.0197C27.6116 72.0605 28.0991 72.1618 28.6797 72.3119C29.1605 72.4363 29.6976 72.5938 30.2802 72.7648C32.4203 73.3925 35.1735 74.2002 38 74.2002C40.8265 74.2002 43.5797 73.3925 45.7197 72.7648C46.3023 72.5939 46.8395 72.4363 47.3203 72.312C47.9009 72.1619 48.3884 72.0605 48.7938 72.0197C49.2067 71.9782 49.4613 72.0078 49.6109 72.0587C49.7247 72.0973 49.7853 72.1473 49.8412 72.2515C49.9152 72.3895 50 72.6699 50 73.2002Z" stroke="white" stroke-opacity="0.8" stroke-width="2"/>
<path d="M50 73.2002C50 75.146 48.8372 76.5609 46.6583 77.5452C44.45 78.5428 41.3621 79 38 79C34.6379 79 31.55 78.5427 29.3417 77.5452C27.1628 76.5609 26 75.1459 26 73.2002C26 72.6699 26.0848 72.3895 26.1588 72.2514C26.2147 72.1472 26.2753 72.0972 26.389 72.0586C26.5387 72.0078 26.7933 71.9782 27.2062 72.0197C27.6116 72.0605 28.0991 72.1618 28.6797 72.3119C29.1605 72.4363 29.6976 72.5938 30.2802 72.7648C32.4203 73.3925 35.1735 74.2002 38 74.2002C40.8265 74.2002 43.5797 73.3925 45.7197 72.7648C46.3023 72.5939 46.8395 72.4363 47.3203 72.312C47.9009 72.1619 48.3884 72.0605 48.7938 72.0197C49.2067 71.9782 49.4613 72.0078 49.6109 72.0587C49.7247 72.0973 49.7853 72.1473 49.8412 72.2515C49.9152 72.3895 50 72.6699 50 73.2002Z" stroke="black" stroke-opacity="0.2" stroke-width="2"/>
<path d="M162.685 34.9555C162.685 48.2103 163.133 63.4555 112.185 67.4555C39.1847 113.455 106.633 96.9555 81.1331 34.9555C81.1331 21.7006 87.3319 10.9555 112.185 10.9555C137.038 10.9555 162.685 21.7006 162.685 34.9555Z" fill="url(#paint4_linear)"/>
<path d="M162.685 34.9555C162.685 48.2103 163.133 63.4555 112.185 67.4555C39.1847 113.455 106.633 96.9555 81.1331 34.9555C81.1331 21.7006 87.3319 10.9555 112.185 10.9555C137.038 10.9555 162.685 21.7006 162.685 34.9555Z" fill="url(#paint5_linear)" fill-opacity="0.2"/>
<path d="M124.845 94.9836C121.203 99.3024 117.164 104.397 99.0084 91.3161C61.93 85.6951 89.044 99.3608 97.5432 71.9601C101.185 67.6412 106.213 65.8901 114.533 72.9066C122.853 79.923 128.487 90.6647 124.845 94.9836Z" fill="url(#paint6_linear)"/>
<path d="M124.845 94.9836C121.203 99.3024 117.164 104.397 99.0084 91.3161C61.93 85.6951 89.044 99.3608 97.5432 71.9601C101.185 67.6412 106.213 65.8901 114.533 72.9066C122.853 79.923 128.487 90.6647 124.845 94.9836Z" fill="url(#paint7_linear)" fill-opacity="0.2"/>
<defs>
<linearGradient id="paint0_linear" x1="52" y1="61.035" x2="52.0803" y2="28.9964" gradientUnits="userSpaceOnUse">
<stop stop-color="#9F00D7"/>
<stop offset="1" stop-color="#62C7CD" stop-opacity="0.58"/>
</linearGradient>
<linearGradient id="paint1_linear" x1="18" y1="114" x2="18" y2="93" gradientUnits="userSpaceOnUse">
<stop stop-color="#A259FF"/>
<stop offset="1" stop-color="#45CED7"/>
</linearGradient>
<linearGradient id="paint2_linear" x1="56" y1="114.5" x2="56" y2="93" gradientUnits="userSpaceOnUse">
<stop stop-color="#A259FF"/>
<stop offset="1" stop-color="#59FFFF" stop-opacity="0.64"/>
</linearGradient>
<linearGradient id="paint3_linear" x1="38" y1="71" x2="38" y2="80" gradientUnits="userSpaceOnUse">
<stop stop-color="#23FFFF" stop-opacity="0.64"/>
<stop offset="0.739583" stop-color="#7000FF" stop-opacity="0.85"/>
</linearGradient>
<linearGradient id="paint4_linear" x1="172" y1="-10.0446" x2="122.213" y2="99.6854" gradientUnits="userSpaceOnUse">
<stop stop-color="#C4C4C4"/>
<stop offset="1" stop-color="#C4C4C4" stop-opacity="0"/>
</linearGradient>
<linearGradient id="paint5_linear" x1="122.213" y1="8" x2="122.213" y2="99.6854" gradientUnits="userSpaceOnUse">
<stop stop-color="#F155FF" stop-opacity="0.71"/>
<stop offset="1" stop-opacity="0"/>
</linearGradient>
<linearGradient id="paint6_linear" x1="172" y1="-10.0446" x2="122.213" y2="99.6854" gradientUnits="userSpaceOnUse">
<stop stop-color="#C4C4C4"/>
<stop offset="1" stop-color="#C4C4C4" stop-opacity="0"/>
</linearGradient>
<linearGradient id="paint7_linear" x1="122.213" y1="8" x2="122.213" y2="99.6854" gradientUnits="userSpaceOnUse">
<stop stop-color="#F155FF" stop-opacity="0.71"/>
<stop offset="1" stop-opacity="0"/>
</linearGradient>
</defs>
</svg>
