<svg width="94" height="79" viewBox="0 0 94 79" fill="none" xmlns="http://www.w3.org/2000/svg">
<path d="M29.0906 17.9565L40.8699 23.3826V43.7304H29.0906V17.9565Z" fill="#C4C4C4"/>
<path d="M48.4919 10.5678L52.6494 1L60.2713 27.4522H48.4919V10.5678Z" fill="#F1E9E9"/>
<path d="M55.4733 15.2047L62.6623 5.20518L61.1899 37.9131L49.8498 34.7938L55.4733 15.2047Z" fill="#F1E9E9"/>
<path d="M40.3481 16.6L52.3549 3.36465L40.3481 37.5797L29.4031 30.8798L40.3481 16.6Z" fill="#F1E9E9"/>
<ellipse rx="9.69135" ry="7.12886" transform="matrix(0.97776 -0.209726 0.218451 0.975848 45.0275 22.3652)" fill="#C4C4C4"/>
<ellipse rx="4.49112" ry="8.84337" transform="matrix(0.932573 -0.360981 0.374565 0.927201 26.8909 21.673)" fill="#A0A0A0"/>
<ellipse rx="4.46751" ry="8.89107" transform="matrix(0.7909 -0.611945 0.628247 0.778014 24.1191 27.7773)" fill="#5E5E5E"/>
<rect x="19.3901" y="26.0956" width="42.2671" height="40.6957" fill="black"/>
<path d="M50.5706 42.3976L42.2114 26.0792L59.0133 26.1204L50.5706 42.3976Z" fill="url(#paint0_linear)"/>
<path d="M23.5474 60.3478H57.4996" stroke="#929292" stroke-width="2"/>
<line y1="-1" x2="9.13945" y2="-1" transform="matrix(0.454887 -0.890549 0.898191 0.439605 25.6262 26.0956)" stroke="white" stroke-width="2"/>
<path d="M29.7837 17.6562L52.996 17.6562" stroke="black" stroke-width="2" stroke-linecap="round"/>
<path d="M52.6494 17.2783L59.4757 26.4184" stroke="black" stroke-width="2"/>
<ellipse cx="27.012" cy="72.8957" rx="6.92904" ry="6.10435" fill="#C4C4C4"/>
<ellipse cx="53.3424" cy="72.8957" rx="6.92904" ry="6.10435" fill="#C4C4C4"/>
<ellipse cx="26.6654" cy="73.2348" rx="2.42516" ry="2.37391" fill="url(#paint1_linear)"/>
<ellipse cx="52.996" cy="73.2348" rx="2.42516" ry="2.37391" fill="url(#paint2_linear)"/>
<ellipse cx="25.6261" cy="47.1217" rx="2.07871" ry="2.03478" fill="#C4C4C4"/>
<ellipse cx="54.7281" cy="47.1217" rx="2.07871" ry="2.03478" fill="#C4C4C4"/>
<path d="M49.8778 50.6488C49.8778 54.0065 45.6188 58 40.8701 58C36.1213 58 31.8623 54.0065 31.8623 50.6488C31.8623 47.2911 36.1213 48 40.8701 48C45.6188 48 49.8778 47.2912 49.8778 50.6488Z" fill="url(#paint3_linear)"/>
<path d="M48.8778 50.6488C48.8778 51.9303 48.0356 53.5145 46.5048 54.8235C44.9976 56.1124 42.9694 57 40.8701 57C38.7707 57 36.7425 56.1124 35.2353 54.8235C33.7045 53.5145 32.8623 51.9303 32.8623 50.6488C32.8623 50.0455 33.04 49.7599 33.2527 49.5778C33.5142 49.3536 33.9724 49.1655 34.7301 49.0547C35.4751 48.9458 36.3846 48.9277 37.4461 48.9416C37.8352 48.9467 38.2513 48.9563 38.6829 48.9663C39.3878 48.9827 40.1338 49 40.8701 49C41.6063 49 42.3523 48.9827 43.0571 48.9664C43.4887 48.9563 43.9049 48.9467 44.294 48.9416C45.3555 48.9277 46.265 48.9458 47.01 49.0548C47.7677 49.1656 48.2259 49.3537 48.4874 49.5778C48.7001 49.76 48.8778 50.0456 48.8778 50.6488Z" stroke="white" stroke-opacity="0.8" stroke-width="2"/>
<path d="M48.8778 50.6488C48.8778 51.9303 48.0356 53.5145 46.5048 54.8235C44.9976 56.1124 42.9694 57 40.8701 57C38.7707 57 36.7425 56.1124 35.2353 54.8235C33.7045 53.5145 32.8623 51.9303 32.8623 50.6488C32.8623 50.0455 33.04 49.7599 33.2527 49.5778C33.5142 49.3536 33.9724 49.1655 34.7301 49.0547C35.4751 48.9458 36.3846 48.9277 37.4461 48.9416C37.8352 48.9467 38.2513 48.9563 38.6829 48.9663C39.3878 48.9827 40.1338 49 40.8701 49C41.6063 49 42.3523 48.9827 43.0571 48.9664C43.4887 48.9563 43.9049 48.9467 44.294 48.9416C45.3555 48.9277 46.265 48.9458 47.01 49.0548C47.7677 49.1656 48.2259 49.3537 48.4874 49.5778C48.7001 49.76 48.8778 50.0456 48.8778 50.6488Z" stroke="black" stroke-opacity="0.2" stroke-width="2"/>
<path d="M71.8978 35.0014C71.6491 34.9405 71.4525 34.8018 71.3079 34.5852C71.1826 34.3568 71.1504 34.1183 71.2112 33.8697L74.2136 21.6079C74.2783 21.3437 74.417 21.147 74.6298 21.018C74.862 20.8771 75.1024 20.8372 75.3511 20.898C75.6152 20.9627 75.81 21.1092 75.9353 21.3376C76.0644 21.5504 76.0966 21.7889 76.0319 22.0531L73.0295 34.3149C72.9687 34.5635 72.8221 34.7583 72.59 34.8991C72.3616 35.0244 72.1309 35.0585 71.8978 35.0014ZM70.8875 39.1275C70.5145 39.0362 70.2283 38.8261 70.0288 38.4972C69.8293 38.1683 69.7752 37.8174 69.8665 37.4444C69.9616 37.0559 70.1736 36.7619 70.5025 36.5624C70.8314 36.3629 71.1823 36.3088 71.5553 36.4001C71.9283 36.4914 72.2126 36.7093 72.4083 37.0537C72.6078 37.3826 72.6619 37.7336 72.5706 38.1065C72.4793 38.4795 72.2692 38.7658 71.9403 38.9653C71.6114 39.1648 71.2605 39.2189 70.8875 39.1275Z" fill="black"/>
<path d="M5.16117 14.8726C5.01857 14.9169 4.87856 14.9067 4.74113 14.8419C4.60984 14.7654 4.52203 14.6559 4.4777 14.5133L2.29159 7.48127C2.24449 7.32976 2.25472 7.18974 2.32228 7.06123C2.39598 6.92103 2.50413 6.82876 2.64673 6.78443C2.79825 6.73733 2.93965 6.75201 3.07093 6.82848C3.19945 6.89604 3.28726 7.00558 3.33436 7.1571L5.52047 14.1891C5.5648 14.3317 5.55012 14.4731 5.47641 14.6133C5.39994 14.7446 5.29486 14.831 5.16117 14.8726ZM5.8968 17.2389C5.6829 17.3054 5.47664 17.2864 5.27802 17.182C5.07941 17.0776 4.94685 16.9185 4.88035 16.7045C4.81108 16.4817 4.82866 16.271 4.93307 16.0724C5.03748 15.8738 5.19664 15.7412 5.41054 15.6747C5.62444 15.6082 5.83208 15.6316 6.03347 15.745C6.23209 15.8494 6.36464 16.0085 6.43114 16.2224C6.49764 16.4363 6.47868 16.6426 6.37427 16.8412C6.26986 17.0398 6.1107 17.1724 5.8968 17.2389Z" fill="black"/>
<defs>
<linearGradient id="paint0_linear" x1="50.5706" y1="42.3976" x2="50.6239" y2="20.6672" gradientUnits="userSpaceOnUse">
<stop stop-color="#9F00D7"/>
<stop offset="1" stop-color="#62C7CD" stop-opacity="0.58"/>
</linearGradient>
<linearGradient id="paint1_linear" x1="27.0118" y1="78.3217" x2="27.0118" y2="64.0783" gradientUnits="userSpaceOnUse">
<stop stop-color="#A259FF"/>
<stop offset="1" stop-color="#45CED7"/>
</linearGradient>
<linearGradient id="paint2_linear" x1="53.3424" y1="78.6609" x2="53.3424" y2="64.0783" gradientUnits="userSpaceOnUse">
<stop stop-color="#A259FF"/>
<stop offset="1" stop-color="#59FFFF" stop-opacity="0.64"/>
</linearGradient>
<linearGradient id="paint3_linear" x1="40.8701" y1="49.1565" x2="40.8701" y2="55.2609" gradientUnits="userSpaceOnUse">
<stop stop-color="#23FFFF" stop-opacity="0.64"/>
<stop offset="0.739583" stop-color="#7000FF" stop-opacity="0.85"/>
</linearGradient>
</defs>
</svg>
