<svg width="167" height="121" viewBox="0 0 167 121" fill="none" xmlns="http://www.w3.org/2000/svg">
<path d="M25.2109 11.1424L30.4845 15.1126L35.7235 11.3764L33.7438 17.5663L39.0174 21.5365L32.5203 21.3919L30.5406 27.5818L28.5048 21.3025L22.0076 21.1579L27.2466 17.4217L25.2109 11.1424Z" fill="url(#paint0_linear)"/>
<path d="M122.715 6.65901L123.597 16.9072L135.164 20.2921L124.142 23.2409L125.023 33.489L117.33 25.0633L106.307 28.012L112.575 19.8559L104.881 11.4302L116.448 14.8151L122.715 6.65901Z" fill="url(#paint1_linear)"/>
<path d="M35.9263 67.6754C34.5286 70.5846 31.9878 67.8823 28.1402 66.0338C24.2925 64.1853 21.5402 61.9233 21.9927 60.9814C22.4452 60.0396 26.7418 59.0872 30.5894 60.9357C36.0234 62.0646 36.3788 66.7335 35.9263 67.6754Z" fill="url(#paint2_linear)"/>
<path d="M18.0408 73.8544C15.8661 75.7832 11.6353 74.6788 8.59102 71.3875C5.54674 68.0963 4.8418 63.8646 7.01648 61.9358C9.19117 60.007 13.422 61.1115 16.4663 64.4027C19.5105 67.6939 20.2155 71.9256 18.0408 73.8544Z" fill="#F80808"/>
<path d="M23.1724 60.835C23.3034 63.3732 19.7846 65.5281 15.313 65.6482C10.8414 65.7682 7.11031 63.8078 6.97934 61.2696C6.84836 58.7314 10.3671 56.5765 14.8387 56.4565C19.3103 56.3365 23.0415 58.2968 23.1724 60.835Z" fill="#F80808"/>
<path d="M27.9022 79.6858C28.853 76.5994 31.7558 78.9228 35.8219 80.2135C39.888 81.5042 42.9348 83.3605 42.6269 84.3598C42.3191 85.359 38.2219 86.9129 34.1557 85.6222C28.631 85.2706 27.5943 80.6851 27.9022 79.6858Z" fill="url(#paint3_linear)"/>
<path d="M6.43622 63.8715L22.232 59.5729L14.5856 74.3803L6.43622 63.8715Z" fill="url(#paint4_linear)"/>
<path d="M45.843 81.1761C43.3863 86.2898 23.0371 78.7218 15.603 75.1502C9.09311 67.3196 13.0524 73.3805 17.5007 64.1214C20.8192 57.2138 21.2341 58.6783 35.5596 68.0957C42.4476 72.6237 48.2997 76.0625 45.843 81.1761Z" fill="url(#paint5_linear)"/>
<path d="M41.7341 79.7649L56.4055 76.2128L49.1014 92.976L41.7341 79.7649Z" fill="url(#paint6_linear)"/>
<path d="M34.9564 76.6742C32.7496 81.2677 31.4252 78.292 28.6649 76.9659C25.9046 75.6398 24.2462 73.3592 24.9606 71.8721C25.6751 70.3849 29.7718 67.5902 32.5321 68.9163C36.9287 68.689 35.6709 75.1871 34.9564 76.6742Z" fill="url(#paint7_linear)"/>
<ellipse cx="18.1472" cy="65.8794" rx="1.68023" ry="1.63074" transform="rotate(25.6606 18.1472 65.8794)" fill="#343800"/>
<path d="M13.6333 66.7786C13.1228 68.1683 11.3431 68.7846 9.65831 68.155C5.34538 66.5434 1.29981 62.2666 11.5817 67.1685C12.0922 65.7788 -0.0355427 62.5189 8.1471 62.7147C9.83186 63.3442 14.1439 65.3888 13.6333 66.7786Z" fill="url(#paint8_linear)"/>
<line y1="-1" x2="8.20548" y2="-1" transform="matrix(0.957074 -0.289845 0.318272 0.948 15.625 71.9045)" stroke="url(#paint9_linear)" stroke-width="2"/>
<line y1="-1" x2="8.20548" y2="-1" transform="matrix(0.957074 -0.289845 0.318272 0.948 16.4131 73.3685)" stroke="url(#paint10_linear)" stroke-width="2"/>
<path d="M136.431 61.4135C134.264 68.6731 121.089 71.253 107.004 67.1759C92.9187 63.0988 83.2572 53.9085 85.4241 46.6489C90.8788 28.3745 108.297 48.742 118.402 41.9144C132.487 45.9915 140.354 48.2688 136.431 61.4135Z" fill="url(#paint11_linear)"/>
<path d="M137.116 54.6456C134.949 61.9053 122.737 64.7639 109.84 61.0307C96.9431 57.2974 88.2445 48.3858 90.4115 41.1262C92.5784 33.8666 104.198 44.005 113.676 36.9961C126.573 40.7294 139.283 47.386 137.116 54.6456Z" fill="url(#paint12_linear)"/>
<ellipse rx="3.27205" ry="4.62535" transform="matrix(0.0489756 0.996193 -1.00012 0.071936 121.089 46.1675)" fill="url(#paint13_linear)"/>
<ellipse rx="2.58605" ry="3.68219" transform="matrix(0.0489756 0.996193 -1.00012 0.071936 119.924 46.1809)" fill="url(#paint14_linear)"/>
<line y1="-0.5" x2="14.5937" y2="-0.5" transform="matrix(0.998723 -0.0905123 0.0669579 0.995031 101.081 50.4169)" stroke="url(#paint15_linear)"/>
<line y1="-0.5" x2="14.5937" y2="-0.5" transform="matrix(0.998723 -0.0905123 0.0669579 0.995031 106.476 54.7113)" stroke="url(#paint16_linear)"/>
<path d="M102.633 42.6811L120.977 59.9787" stroke="url(#paint17_linear)"/>
<path d="M107.523 42.4203L126.668 60.5701" stroke="url(#paint18_linear)"/>
<line y1="-0.5" x2="27.6061" y2="-0.5" transform="matrix(0.74578 0.661353 -0.654956 0.759768 98.1943 44.1293)" stroke="url(#paint19_linear)"/>
<line y1="-0.5" x2="14.5937" y2="-0.5" transform="matrix(0.998723 -0.0905123 0.0669579 0.995031 97.7178 46.0274)" stroke="#A03535"/>
<path d="M154.546 75.2603C149.997 83.4588 133.461 82.9291 117.612 74.077C101.763 65.225 92.603 51.4027 97.1523 43.2041C108.604 22.5662 124.102 52.0907 138.082 46.6191C153.931 55.4712 162.783 60.4154 154.546 75.2603Z" fill="url(#paint20_linear)"/>
<path d="M157.182 67.2465C152.632 75.445 137.18 75.5205 122.668 67.415C108.156 59.3095 100.079 46.0924 104.629 37.8939C109.178 29.6953 120.439 45.2104 133.715 39.3453C148.227 47.4508 161.731 59.0479 157.182 67.2465Z" fill="url(#paint21_linear)"/>
<ellipse rx="4.04962" ry="5.72602" transform="matrix(-0.167856 0.986693 -0.987185 -0.153814 140.174 52.5204)" fill="url(#paint22_linear)"/>
<ellipse rx="3.2006" ry="4.55842" transform="matrix(-0.167856 0.986693 -0.987185 -0.153814 138.77 52.2133)" fill="url(#paint23_linear)"/>
<line y1="-0.5" x2="18.0664" y2="-0.5" transform="matrix(0.989852 0.135312 -0.15013 0.989584 114.973 52.1177)" stroke="url(#paint24_linear)"/>
<line y1="-0.5" x2="18.0664" y2="-0.5" transform="matrix(0.989852 0.135312 -0.15013 0.989584 120.312 58.8207)" stroke="url(#paint25_linear)"/>
<path d="M118.91 43.171L136.342 69.231" stroke="url(#paint26_linear)"/>
<path d="M124.862 44.2126L143.03 71.5279" stroke="url(#paint27_linear)"/>
<line y1="-0.5" x2="34.1746" y2="-0.5" transform="matrix(0.581555 0.814826 -0.800768 0.597237 113.185 43.6945)" stroke="url(#paint28_linear)"/>
<line y1="-0.5" x2="18.0664" y2="-0.5" transform="matrix(0.989852 0.135312 -0.15013 0.989584 112.104 45.8631)" stroke="#A03535"/>
<ellipse cx="72.8076" cy="18.3269" rx="22.0752" ry="6.67312" transform="rotate(35.8059 72.8076 18.3269)" fill="url(#paint29_linear)"/>
<line y1="-1" x2="8.53141" y2="-1" transform="matrix(0.239448 0.970909 -0.874323 0.485345 69.0947 8.55554)" stroke="white" stroke-width="2"/>
<line y1="-1" x2="8.53141" y2="-1" transform="matrix(0.239448 0.970909 -0.874323 0.485345 74.3525 11.213)" stroke="white" stroke-width="2"/>
<line y1="-1" x2="8.53141" y2="-1" transform="matrix(0.239448 0.970909 -0.874323 0.485345 79.3486 14.8171)" stroke="white" stroke-width="2"/>
<path d="M146.871 94.5395L153.31 93.6705L153.088 97.8931L146.871 94.5395Z" fill="url(#paint30_linear)"/>
<path d="M118.942 80.1691L148.109 92.85L143.611 99.8676L118.942 80.1691Z" fill="url(#paint31_linear)"/>
<path d="M144.538 98.6243L149.959 102.604L146.04 104.292L144.538 98.6243Z" fill="url(#paint32_linear)"/>
<path d="M145.573 96.7632L153.78 99.0333L151.584 102.524L145.573 96.7632Z" fill="url(#paint33_linear)"/>
<path d="M83.8776 110.523C76.0594 116.31 65.0829 114.733 59.3609 107.001C53.6389 99.2699 55.3382 88.3116 63.1564 82.5254C70.9746 76.7392 78.0298 79.4769 87.6731 86.0476C87.6731 86.0476 94.4304 102.713 83.8776 110.523Z" fill="url(#paint34_linear)"/>
<rect x="95.2197" y="74.714" width="7.10855" height="18.572" transform="rotate(53.495 95.2197 74.714)" fill="url(#paint35_linear)"/>
<ellipse cx="96.7641" cy="73.5711" rx="4.26513" ry="3.84248" transform="rotate(53.495 96.7641 73.5711)" fill="#FFF4E8"/>
<ellipse cx="100.571" cy="78.7136" rx="4.26513" ry="3.84248" transform="rotate(53.495 100.571 78.7136)" fill="#FFF4E8"/>
<path d="M28.1567 102.644C27.4383 108.241 23.5191 114.668 17.1208 109.726C10.268 112.709 7.51291 105.684 8.23131 100.087C8.94971 94.4895 14.2207 92.8718 18.8444 96.2981C24.802 93.7149 28.8751 97.047 28.1567 102.644Z" fill="url(#paint36_linear)"/>
<line y1="-1" x2="5.64721" y2="-1" transform="matrix(0.224697 -0.974429 0.977886 0.209137 19.332 96.8759)" stroke="black" stroke-width="2"/>
<ellipse rx="7.16085" ry="2.79633" transform="matrix(0.964162 -0.265314 0.329014 0.944325 26.1172 95.4054)" fill="url(#paint37_linear)"/>
<path d="M57.1589 34.7954L77.224 55.9235L28.5088 29.4881L57.1589 34.7954Z" fill="#FAEF8F"/>
<path d="M27.0723 28.7808L76.9012 55.0677L70.9016 70.2686L20.5413 45.3281L27.0723 28.7808Z" fill="url(#paint38_linear)"/>
<defs>
<linearGradient id="paint0_linear" x1="25.2109" y1="11.1424" x2="35.7891" y2="25.9756" gradientUnits="userSpaceOnUse">
<stop stop-color="#C4C4C4"/>
<stop offset="1" stop-color="#C4C4C4" stop-opacity="0"/>
</linearGradient>
<linearGradient id="paint1_linear" x1="122.715" y1="6.65901" x2="114.921" y2="33.2939" gradientUnits="userSpaceOnUse">
<stop stop-color="#C4C4C4"/>
<stop offset="1" stop-color="#C4C4C4" stop-opacity="0"/>
</linearGradient>
<linearGradient id="paint2_linear" x1="30.7051" y1="60.695" x2="28.0216" y2="66.2807" gradientUnits="userSpaceOnUse">
<stop stop-color="#FF843F"/>
<stop offset="1" stop-color="#FF9029" stop-opacity="0.24"/>
</linearGradient>
<linearGradient id="paint3_linear" x1="34.0771" y1="85.8776" x2="35.953" y2="79.9676" gradientUnits="userSpaceOnUse">
<stop stop-color="#FF843F"/>
<stop offset="1" stop-color="#FF9029" stop-opacity="0.24"/>
</linearGradient>
<linearGradient id="paint4_linear" x1="34.0886" y1="65.269" x2="26.089" y2="81.9203" gradientUnits="userSpaceOnUse">
<stop stop-color="#F70000"/>
<stop offset="1" stop-color="#ED0C0C" stop-opacity="0.72"/>
</linearGradient>
<linearGradient id="paint5_linear" x1="34.0886" y1="65.269" x2="26.089" y2="81.9203" gradientUnits="userSpaceOnUse">
<stop stop-color="#F70000"/>
<stop offset="1" stop-color="#ED0C0C" stop-opacity="0.72"/>
</linearGradient>
<linearGradient id="paint6_linear" x1="34.0886" y1="65.269" x2="26.089" y2="81.9203" gradientUnits="userSpaceOnUse">
<stop stop-color="#F70000"/>
<stop offset="1" stop-color="#ED0C0C" stop-opacity="0.72"/>
</linearGradient>
<linearGradient id="paint7_linear" x1="32.7147" y1="68.5362" x2="28.4776" y2="77.3557" gradientUnits="userSpaceOnUse">
<stop stop-color="#FF843F"/>
<stop offset="1" stop-color="#FF9029" stop-opacity="0.24"/>
</linearGradient>
<linearGradient id="paint8_linear" x1="9.84274" y1="63.3483" x2="8.24407" y2="67.6266" gradientUnits="userSpaceOnUse">
<stop stop-color="#FF4646"/>
<stop offset="1" stop-color="#FFA5A5"/>
</linearGradient>
<linearGradient id="paint9_linear" x1="-1.44566" y1="-4.11974" x2="4.55994" y2="-3.51107" gradientUnits="userSpaceOnUse">
<stop offset="0.416667" stop-color="#F5CECE"/>
<stop offset="1" stop-color="#FFE4E4" stop-opacity="0.22"/>
</linearGradient>
<linearGradient id="paint10_linear" x1="-1.44566" y1="-4.11974" x2="4.55994" y2="-3.51107" gradientUnits="userSpaceOnUse">
<stop offset="0.416667" stop-color="#F5CECE"/>
<stop offset="1" stop-color="#FFE4E4" stop-opacity="0.22"/>
</linearGradient>
<linearGradient id="paint11_linear" x1="114.851" y1="40.8864" x2="107.223" y2="67.2393" gradientUnits="userSpaceOnUse">
<stop/>
<stop offset="1" stop-color="#FF3C3C"/>
</linearGradient>
<linearGradient id="paint12_linear" x1="117.687" y1="34.7412" x2="110.059" y2="61.094" gradientUnits="userSpaceOnUse">
<stop stop-color="#C95858"/>
<stop offset="0.479167" stop-color="#FF2F93"/>
<stop offset="1" stop-color="#FFB7B7"/>
</linearGradient>
<linearGradient id="paint13_linear" x1="3.27205" y1="0" x2="3.27205" y2="9.25071" gradientUnits="userSpaceOnUse">
<stop offset="0.333333" stop-color="#F1B1C8"/>
<stop offset="1" stop-color="#D75151" stop-opacity="0"/>
</linearGradient>
<linearGradient id="paint14_linear" x1="2.58605" y1="0" x2="2.58605" y2="7.36439" gradientUnits="userSpaceOnUse">
<stop offset="0.015625" stop-color="#FF36DF"/>
<stop offset="1" stop-color="#C2B6A8" stop-opacity="0.47"/>
</linearGradient>
<linearGradient id="paint15_linear" x1="14.8115" y1="93.3911" x2="86.6021" y2="18.9085" gradientUnits="userSpaceOnUse">
<stop/>
<stop offset="1" stop-opacity="0"/>
</linearGradient>
<linearGradient id="paint16_linear" x1="-0.930152" y1="-153.598" x2="38.2542" y2="37.849" gradientUnits="userSpaceOnUse">
<stop/>
<stop/>
<stop/>
<stop offset="1" stop-opacity="0"/>
</linearGradient>
<linearGradient id="paint17_linear" x1="97.0326" y1="30.1287" x2="112.689" y2="65.3999" gradientUnits="userSpaceOnUse">
<stop stop-color="#DB3A3A"/>
<stop offset="1" stop-opacity="0"/>
</linearGradient>
<linearGradient id="paint18_linear" x1="117.382" y1="51.1631" x2="116.8" y2="51.8192" gradientUnits="userSpaceOnUse">
<stop stop-color="#CC1C1C"/>
<stop offset="1" stop-color="#3C2323" stop-opacity="0"/>
</linearGradient>
<linearGradient id="paint19_linear" x1="24.6435" y1="18.6481" x2="58.1988" y2="-8.30925" gradientUnits="userSpaceOnUse">
<stop stop-color="#A61919"/>
<stop offset="0.21875" stop-color="#AA1717" stop-opacity="0"/>
<stop offset="1" stop-color="#AA1717" stop-opacity="0"/>
</linearGradient>
<linearGradient id="paint20_linear" x1="134.086" y1="44.3874" x2="117.529" y2="74.0311" gradientUnits="userSpaceOnUse">
<stop/>
<stop offset="1" stop-color="#FF3C3C"/>
</linearGradient>
<linearGradient id="paint21_linear" x1="139.143" y1="37.7253" x2="122.586" y2="67.369" gradientUnits="userSpaceOnUse">
<stop stop-color="#C95858"/>
<stop offset="0.479167" stop-color="#FF2F93"/>
<stop offset="1" stop-color="#FFB7B7"/>
</linearGradient>
<linearGradient id="paint22_linear" x1="4.04962" y1="0" x2="4.04962" y2="11.452" gradientUnits="userSpaceOnUse">
<stop offset="0.333333" stop-color="#F1B1C8"/>
<stop offset="1" stop-color="#D75151" stop-opacity="0"/>
</linearGradient>
<linearGradient id="paint23_linear" x1="3.2006" y1="0" x2="3.2006" y2="9.11684" gradientUnits="userSpaceOnUse">
<stop offset="0.015625" stop-color="#FF36DF"/>
<stop offset="1" stop-color="#C2B6A8" stop-opacity="0.47"/>
</linearGradient>
<linearGradient id="paint24_linear" x1="18.336" y1="93.3911" x2="87.9826" y2="3.93849" gradientUnits="userSpaceOnUse">
<stop/>
<stop offset="1" stop-opacity="0"/>
</linearGradient>
<linearGradient id="paint25_linear" x1="-1.15149" y1="-153.598" x2="30.9494" y2="40.5617" gradientUnits="userSpaceOnUse">
<stop/>
<stop/>
<stop/>
<stop offset="1" stop-opacity="0"/>
</linearGradient>
<linearGradient id="paint26_linear" x1="115.535" y1="26.4006" x2="124.823" y2="73.5219" gradientUnits="userSpaceOnUse">
<stop stop-color="#DB3A3A"/>
<stop offset="1" stop-opacity="0"/>
</linearGradient>
<linearGradient id="paint27_linear" x1="134.379" y1="57.5471" x2="133.5" y2="58.175" gradientUnits="userSpaceOnUse">
<stop stop-color="#CC1C1C"/>
<stop offset="1" stop-color="#3C2323" stop-opacity="0"/>
</linearGradient>
<linearGradient id="paint28_linear" x1="30.5071" y1="18.6481" x2="64.8693" y2="-15.5259" gradientUnits="userSpaceOnUse">
<stop stop-color="#A61919"/>
<stop offset="0.21875" stop-color="#AA1717" stop-opacity="0"/>
<stop offset="1" stop-color="#AA1717" stop-opacity="0"/>
</linearGradient>
<linearGradient id="paint29_linear" x1="72.8076" y1="11.6537" x2="72.8076" y2="25" gradientUnits="userSpaceOnUse">
<stop stop-color="#FDFFA6"/>
<stop offset="1" stop-color="#FFA337" stop-opacity="0.82"/>
</linearGradient>
<linearGradient id="paint30_linear" x1="146.871" y1="94.5395" x2="155.372" y2="94.986" gradientUnits="userSpaceOnUse">
<stop stop-color="#FFC164"/>
<stop offset="1" stop-color="#328500"/>
</linearGradient>
<linearGradient id="paint31_linear" x1="118.451" y1="80.956" x2="145.136" y2="97.6131" gradientUnits="userSpaceOnUse">
<stop stop-color="#FFF500" stop-opacity="0.29"/>
<stop offset="1" stop-color="#FF951A"/>
</linearGradient>
<linearGradient id="paint32_linear" x1="144.538" y1="98.6243" x2="147.27" y2="105.673" gradientUnits="userSpaceOnUse">
<stop stop-color="#FF9839"/>
<stop offset="1" stop-color="#238539" stop-opacity="0"/>
<stop offset="1" stop-color="#FFF844"/>
</linearGradient>
<linearGradient id="paint33_linear" x1="145.573" y1="96.7632" x2="154.777" y2="102.553" gradientUnits="userSpaceOnUse">
<stop stop-color="#FBBA59"/>
<stop offset="1" stop-color="#1F6F18"/>
</linearGradient>
<linearGradient id="paint34_linear" x1="87.6731" y1="86.0476" x2="59.3609" y2="107.001" gradientUnits="userSpaceOnUse">
<stop stop-color="#EBA031"/>
<stop offset="1" stop-color="#F2D120" stop-opacity="0.74"/>
</linearGradient>
<linearGradient id="paint35_linear" x1="98.774" y1="74.714" x2="98.774" y2="93.286" gradientUnits="userSpaceOnUse">
<stop offset="0.567708" stop-color="#FFF4E8"/>
<stop offset="1" stop-color="#F2A737"/>
</linearGradient>
<linearGradient id="paint36_linear" x1="19.0262" y1="94.8819" x2="16.9633" y2="110.954" gradientUnits="userSpaceOnUse">
<stop stop-color="#FF1D1D"/>
<stop offset="1" stop-color="#FFD76F" stop-opacity="0.38"/>
</linearGradient>
<linearGradient id="paint37_linear" x1="-2.11834" y1="4.81557" x2="33.8939" y2="3.34707" gradientUnits="userSpaceOnUse">
<stop offset="0.0837381" stop-color="#4FDB7F"/>
<stop offset="1" stop-color="#FCFF81" stop-opacity="0.35"/>
</linearGradient>
<linearGradient id="paint38_linear" x1="53.1171" y1="39.0603" x2="44.8568" y2="59.9892" gradientUnits="userSpaceOnUse">
<stop stop-color="#E6D370"/>
<stop offset="1" stop-color="#FDFF87" stop-opacity="0.46"/>
</linearGradient>
</defs>
</svg>
