<svg width="212" height="180" viewBox="0 0 212 180" fill="none" xmlns="http://www.w3.org/2000/svg">
<path d="M23.2109 31.3092L28.4845 35.2794L33.7235 31.5432L31.7438 37.7331L37.0174 41.7033L30.5203 41.5587L28.5406 47.7486L26.5048 41.4693L20.0076 41.3247L25.2466 37.5885L23.2109 31.3092Z" fill="url(#paint0_linear)"/>
<path d="M170.715 6.65901L171.597 16.9072L183.164 20.2921L172.142 23.2409L173.023 33.489L165.33 25.0633L154.307 28.012L160.575 19.8559L152.881 11.4302L164.448 14.8151L170.715 6.65901Z" fill="url(#paint1_linear)"/>
<line x1="100.903" y1="93.922" x2="89.5399" y2="67.1956" stroke="url(#paint2_linear)"/>
<path d="M92.3359 90L109.336 98V128H92.3359V90Z" fill="#C4C4C4"/>
<path d="M120.336 79.1064L126.336 65L137.336 104H120.336V79.1064Z" fill="#F1E9E9"/>
<path d="M130.411 85.9429L140.786 71.1999L138.661 119.423L122.295 114.824L130.411 85.9429Z" fill="#F1E9E9"/>
<path d="M108.583 88L125.911 68.4863L108.583 118.932L92.7869 109.054L108.583 88Z" fill="#F1E9E9"/>
<ellipse cx="115.335" cy="96.5" rx="14" ry="10.5" transform="rotate(-12.3597 115.335 96.5)" fill="#C4C4C4"/>
<ellipse cx="89.161" cy="95.4794" rx="6.5" ry="13" transform="rotate(-21.5757 89.161 95.4794)" fill="#A0A0A0"/>
<ellipse cx="85.1608" cy="104.479" rx="6.5" ry="13" transform="rotate(-38.3241 85.1608 104.479)" fill="#5E5E5E"/>
<rect x="78.3359" y="102" width="61" height="60" fill="black"/>
<path d="M123.336 126.035L111.272 101.976L135.521 102.036L123.336 126.035Z" fill="url(#paint3_linear)"/>
<path d="M84.3359 152.5H133.336" stroke="#929292" stroke-width="2"/>
<line x1="86.4415" y1="101.553" x2="92.4415" y2="89.5528" stroke="white" stroke-width="2"/>
<path d="M93.3359 89.5573L126.836 89.5573" stroke="black" stroke-width="2" stroke-linecap="round"/>
<path d="M126.336 89L136.188 102.476" stroke="black" stroke-width="2"/>
<ellipse cx="89.3359" cy="171" rx="10" ry="9" fill="#C4C4C4"/>
<ellipse cx="127.336" cy="171" rx="10" ry="9" fill="#C4C4C4"/>
<circle cx="88.8359" cy="171.5" r="3.5" fill="url(#paint4_linear)"/>
<circle cx="126.836" cy="171.5" r="3.5" fill="url(#paint5_linear)"/>
<circle cx="87.3359" cy="133" r="3" fill="#C4C4C4"/>
<circle cx="129.336" cy="133" r="3" fill="#C4C4C4"/>
<path d="M122.336 138.2C122.336 143.151 116.189 145 109.336 145C102.483 145 96.3359 143.151 96.3359 138.2C96.3359 133.25 102.483 138.2 109.336 138.2C116.189 138.2 122.336 133.25 122.336 138.2Z" fill="url(#paint6_linear)"/>
<path d="M121.336 138.2C121.336 140.146 120.173 141.561 117.994 142.545C115.786 143.543 112.698 144 109.336 144C105.974 144 102.886 143.543 100.678 142.545C98.4987 141.561 97.3359 140.146 97.3359 138.2C97.3359 137.67 97.4207 137.389 97.4947 137.251C97.5506 137.147 97.6113 137.097 97.725 137.059C97.8746 137.008 98.1292 136.978 98.5421 137.02C98.9476 137.06 99.4351 137.162 100.016 137.312C100.496 137.436 101.034 137.594 101.616 137.765C103.756 138.393 106.509 139.2 109.336 139.2C112.162 139.2 114.916 138.393 117.056 137.765C117.638 137.594 118.175 137.436 118.656 137.312C119.237 137.162 119.724 137.061 120.13 137.02C120.543 136.978 120.797 137.008 120.947 137.059C121.061 137.097 121.121 137.147 121.177 137.251C121.251 137.39 121.336 137.67 121.336 138.2Z" stroke="white" stroke-opacity="0.8" stroke-width="2"/>
<path d="M121.336 138.2C121.336 140.146 120.173 141.561 117.994 142.545C115.786 143.543 112.698 144 109.336 144C105.974 144 102.886 143.543 100.678 142.545C98.4987 141.561 97.3359 140.146 97.3359 138.2C97.3359 137.67 97.4207 137.389 97.4947 137.251C97.5506 137.147 97.6113 137.097 97.725 137.059C97.8746 137.008 98.1292 136.978 98.5421 137.02C98.9476 137.06 99.4351 137.162 100.016 137.312C100.496 137.436 101.034 137.594 101.616 137.765C103.756 138.393 106.509 139.2 109.336 139.2C112.162 139.2 114.916 138.393 117.056 137.765C117.638 137.594 118.175 137.436 118.656 137.312C119.237 137.162 119.724 137.061 120.13 137.02C120.543 136.978 120.797 137.008 120.947 137.059C121.061 137.097 121.121 137.147 121.177 137.251C121.251 137.39 121.336 137.67 121.336 138.2Z" stroke="black" stroke-opacity="0.2" stroke-width="2"/>
<path d="M90.4474 35.7033C89.2744 39.6208 85.661 36.7725 80.6048 35.2586C75.5487 33.7447 71.7578 31.4892 72.1376 30.2209C72.5173 28.9526 77.6043 26.8796 82.6604 28.3935C89.5265 28.683 90.8271 34.4349 90.4474 35.7033Z" fill="url(#paint7_linear)"/>
<path d="M69.6832 47.0956C67.3766 49.9499 61.989 49.4432 57.6497 45.9638C53.3103 42.4844 51.6624 37.3499 53.969 34.4956C56.2756 31.6413 61.6632 32.148 66.0026 35.6274C70.342 39.1068 71.9898 44.2413 69.6832 47.0956Z" fill="#F80808"/>
<path d="M73.5572 29.7951C74.1881 32.9349 70.2768 36.3481 64.8211 37.4187C59.3655 38.4893 54.4314 36.8119 53.8005 33.672C53.1696 30.5322 57.0809 27.119 62.5366 26.0484C67.9922 24.9778 72.9263 26.6552 73.5572 29.7951Z" fill="#F80808"/>
<path d="M82.8443 52.3404C83.4371 48.2937 87.4238 50.5948 92.6442 51.3678C97.8646 52.1407 101.941 53.8294 101.749 55.1395C101.557 56.4496 96.8259 59.2321 91.6055 58.4591C84.7722 59.1582 82.6525 53.6505 82.8443 52.3404Z" fill="url(#paint8_linear)"/>
<path d="M53.6166 37.0302L72.1704 28.414L65.5477 48.4633L53.6166 37.0302Z" fill="url(#paint9_linear)"/>
<path d="M105.099 50.5052C103.037 57.3912 76.7058 52.1395 66.9367 49.2144C57.5105 40.7851 63.4841 47.5317 67.2173 35.0634C70.0025 25.7617 70.7821 27.5035 90.0769 36.3029C99.3542 40.5339 107.161 43.6191 105.099 50.5052Z" fill="url(#paint10_linear)"/>
<path d="M99.8037 49.5906L117.118 42.1374L111.277 64.5563L99.8037 49.5906Z" fill="url(#paint11_linear)"/>
<path d="M90.9286 47.1302C89.0765 53.3157 86.9025 49.8758 83.2753 48.7897C79.648 47.7036 77.1937 45.1998 77.7933 43.1972C78.3929 41.1946 82.8936 36.8641 86.5209 37.9501C91.8647 36.7612 91.5282 45.1276 90.9286 47.1302Z" fill="url(#paint12_linear)"/>
<ellipse cx="68.335" cy="37.1236" rx="2.0775" ry="2.0662" transform="rotate(16.6688 68.335 37.1236)" fill="#343800"/>
<path d="M62.9734 39.1749C62.6055 41.014 60.5396 42.1494 58.359 41.7109C52.7768 40.5883 47.0281 36.0854 60.5324 40.084C60.9003 38.2449 45.439 36.6752 55.4994 35.2344C57.68 35.6729 63.3413 37.3359 62.9734 39.1749Z" fill="url(#paint13_linear)"/>
<line y1="-1" x2="10.2609" y2="-1" transform="matrix(0.894634 -0.446801 0.451666 0.892187 66.3623 45.1602)" stroke="url(#paint14_linear)" stroke-width="2"/>
<line y1="-1" x2="10.2609" y2="-1" transform="matrix(0.894634 -0.446801 0.451666 0.892187 67.5986 46.8246)" stroke="url(#paint15_linear)" stroke-width="2"/>
<path d="M177.431 61.4135C175.264 68.6731 162.089 71.253 148.004 67.1759C133.919 63.0988 124.257 53.9085 126.424 46.6489C131.879 28.3745 149.297 48.742 159.402 41.9144C173.487 45.9915 181.354 48.2688 177.431 61.4135Z" fill="url(#paint16_linear)"/>
<path d="M178.116 54.6456C175.949 61.9053 163.737 64.7639 150.84 61.0307C137.943 57.2974 129.245 48.3858 131.411 41.1262C133.578 33.8666 145.198 44.005 154.676 36.9961C167.573 40.7294 180.283 47.386 178.116 54.6456Z" fill="url(#paint17_linear)"/>
<ellipse rx="3.27205" ry="4.62535" transform="matrix(0.0489756 0.996193 -1.00012 0.071936 162.089 46.1675)" fill="url(#paint18_linear)"/>
<ellipse rx="2.58605" ry="3.68219" transform="matrix(0.0489756 0.996193 -1.00012 0.071936 160.924 46.1809)" fill="url(#paint19_linear)"/>
<line y1="-0.5" x2="14.5937" y2="-0.5" transform="matrix(0.998723 -0.0905123 0.0669579 0.995031 142.081 50.4169)" stroke="url(#paint20_linear)"/>
<line y1="-0.5" x2="14.5937" y2="-0.5" transform="matrix(0.998723 -0.0905123 0.0669579 0.995031 147.476 54.7113)" stroke="url(#paint21_linear)"/>
<path d="M143.633 42.6811L161.977 59.9787" stroke="url(#paint22_linear)"/>
<path d="M148.523 42.4203L167.668 60.5701" stroke="url(#paint23_linear)"/>
<line y1="-0.5" x2="27.6061" y2="-0.5" transform="matrix(0.74578 0.661353 -0.654956 0.759768 139.194 44.1293)" stroke="url(#paint24_linear)"/>
<line y1="-0.5" x2="14.5937" y2="-0.5" transform="matrix(0.998723 -0.0905123 0.0669579 0.995031 138.718 46.0274)" stroke="#A03535"/>
<path d="M195.546 75.2603C190.997 83.4588 174.461 82.9291 158.612 74.077C142.763 65.225 133.603 51.4027 138.152 43.2041C149.604 22.5662 165.102 52.0907 179.082 46.6191C194.931 55.4712 203.783 60.4154 195.546 75.2603Z" fill="url(#paint25_linear)"/>
<path d="M198.182 67.2465C193.632 75.445 178.18 75.5205 163.668 67.415C149.156 59.3095 141.079 46.0924 145.629 37.8939C150.178 29.6953 161.439 45.2104 174.715 39.3453C189.227 47.4508 202.731 59.0479 198.182 67.2465Z" fill="url(#paint26_linear)"/>
<ellipse rx="4.04962" ry="5.72602" transform="matrix(-0.167856 0.986693 -0.987185 -0.153814 181.174 52.5204)" fill="url(#paint27_linear)"/>
<ellipse rx="3.2006" ry="4.55842" transform="matrix(-0.167856 0.986693 -0.987185 -0.153814 179.77 52.2133)" fill="url(#paint28_linear)"/>
<line y1="-0.5" x2="18.0664" y2="-0.5" transform="matrix(0.989852 0.135312 -0.15013 0.989584 155.973 52.1177)" stroke="url(#paint29_linear)"/>
<line y1="-0.5" x2="18.0664" y2="-0.5" transform="matrix(0.989852 0.135312 -0.15013 0.989584 161.312 58.8207)" stroke="url(#paint30_linear)"/>
<path d="M159.91 43.171L177.342 69.231" stroke="url(#paint31_linear)"/>
<path d="M165.862 44.2126L184.03 71.5279" stroke="url(#paint32_linear)"/>
<line y1="-0.5" x2="34.1746" y2="-0.5" transform="matrix(0.581555 0.814826 -0.800768 0.597237 154.185 43.6945)" stroke="url(#paint33_linear)"/>
<line y1="-0.5" x2="18.0664" y2="-0.5" transform="matrix(0.989852 0.135312 -0.15013 0.989584 153.104 45.8631)" stroke="#A03535"/>
<ellipse cx="113.808" cy="18.3269" rx="22.0752" ry="6.67312" transform="rotate(35.8059 113.808 18.3269)" fill="url(#paint34_linear)"/>
<line y1="-1" x2="8.53141" y2="-1" transform="matrix(0.239448 0.970909 -0.874323 0.485345 110.095 8.55554)" stroke="white" stroke-width="2"/>
<line y1="-1" x2="8.53141" y2="-1" transform="matrix(0.239448 0.970909 -0.874323 0.485345 115.353 11.213)" stroke="white" stroke-width="2"/>
<line y1="-1" x2="8.53141" y2="-1" transform="matrix(0.239448 0.970909 -0.874323 0.485345 120.349 14.8171)" stroke="white" stroke-width="2"/>
<line x1="107.673" y1="125.804" x2="211.737" y2="61.5745" stroke="url(#paint35_linear)"/>
<line x1="109.289" y1="126.915" x2="1.74582" y2="63.4306" stroke="url(#paint36_linear)"/>
<line x1="87.9569" y1="99.0177" x2="51.5936" y2="48.2913" stroke="url(#paint37_linear)"/>
<line x1="118.3" y1="98.4223" x2="157.282" y2="49.6795" stroke="url(#paint38_linear)"/>
<path d="M173.871 101.54L180.31 100.67L180.088 104.893L173.871 101.54Z" fill="url(#paint39_linear)"/>
<path d="M145.942 87.1691L175.109 99.85L170.611 106.868L145.942 87.1691Z" fill="url(#paint40_linear)"/>
<path d="M171.538 105.624L176.959 109.604L173.04 111.292L171.538 105.624Z" fill="url(#paint41_linear)"/>
<path d="M172.573 103.763L180.78 106.033L178.584 109.524L172.573 103.763Z" fill="url(#paint42_linear)"/>
<path d="M34.8776 98.5235C27.0594 104.31 16.0829 102.733 10.3609 95.0013C4.6389 87.2699 6.3382 76.3116 14.1564 70.5254C21.9746 64.7392 29.0298 67.4769 38.6731 74.0476C38.6731 74.0476 45.4304 90.7134 34.8776 98.5235Z" fill="url(#paint43_linear)"/>
<rect x="46.2197" y="62.714" width="7.10855" height="18.572" transform="rotate(53.495 46.2197 62.714)" fill="url(#paint44_linear)"/>
<ellipse cx="47.7641" cy="61.5711" rx="4.26513" ry="3.84248" transform="rotate(53.495 47.7641 61.5711)" fill="#FFF4E8"/>
<ellipse cx="51.5708" cy="66.7136" rx="4.26513" ry="3.84248" transform="rotate(53.495 51.5708 66.7136)" fill="#FFF4E8"/>
<path d="M69.1567 102.644C68.4383 108.241 64.5191 114.668 58.1208 109.726C51.268 112.709 48.5129 105.684 49.2313 100.087C49.9497 94.4895 55.2207 92.8718 59.8444 96.2981C65.802 93.7149 69.8751 97.047 69.1567 102.644Z" fill="url(#paint45_linear)"/>
<line y1="-1" x2="5.64721" y2="-1" transform="matrix(0.224697 -0.974429 0.977886 0.209137 60.332 96.8759)" stroke="black" stroke-width="2"/>
<ellipse rx="7.16085" ry="2.79633" transform="matrix(0.964162 -0.265314 0.329014 0.944325 67.1172 95.4054)" fill="url(#paint46_linear)"/>
<defs>
<linearGradient id="paint0_linear" x1="23.2109" y1="31.3092" x2="33.7891" y2="46.1424" gradientUnits="userSpaceOnUse">
<stop stop-color="#C4C4C4"/>
<stop offset="1" stop-color="#C4C4C4" stop-opacity="0"/>
</linearGradient>
<linearGradient id="paint1_linear" x1="170.715" y1="6.65901" x2="162.921" y2="33.2939" gradientUnits="userSpaceOnUse">
<stop stop-color="#C4C4C4"/>
<stop offset="1" stop-color="#C4C4C4" stop-opacity="0"/>
</linearGradient>
<linearGradient id="paint2_linear" x1="103.003" y1="96.4602" x2="86.1612" y2="55.6285" gradientUnits="userSpaceOnUse">
<stop offset="0.317708" stop-opacity="0"/>
<stop offset="0.5625" stop-color="#9CB4D9" stop-opacity="0.358779"/>
<stop offset="1" stop-color="#8DBBFF"/>
</linearGradient>
<linearGradient id="paint3_linear" x1="123.336" y1="126.035" x2="123.416" y2="93.9964" gradientUnits="userSpaceOnUse">
<stop stop-color="#9F00D7"/>
<stop offset="1" stop-color="#62C7CD" stop-opacity="0.58"/>
</linearGradient>
<linearGradient id="paint4_linear" x1="89.3359" y1="179" x2="89.3359" y2="158" gradientUnits="userSpaceOnUse">
<stop stop-color="#A259FF"/>
<stop offset="1" stop-color="#45CED7"/>
</linearGradient>
<linearGradient id="paint5_linear" x1="127.336" y1="179.5" x2="127.336" y2="158" gradientUnits="userSpaceOnUse">
<stop stop-color="#A259FF"/>
<stop offset="1" stop-color="#59FFFF" stop-opacity="0.64"/>
</linearGradient>
<linearGradient id="paint6_linear" x1="109.336" y1="136" x2="109.336" y2="145" gradientUnits="userSpaceOnUse">
<stop stop-color="#23FFFF" stop-opacity="0.64"/>
<stop offset="0.739583" stop-color="#7000FF" stop-opacity="0.85"/>
</linearGradient>
<linearGradient id="paint7_linear" x1="82.7575" y1="28.0694" x2="80.5053" y2="35.591" gradientUnits="userSpaceOnUse">
<stop stop-color="#FF843F"/>
<stop offset="1" stop-color="#FF9029" stop-opacity="0.24"/>
</linearGradient>
<linearGradient id="paint8_linear" x1="91.5564" y1="58.7939" x2="92.7066" y2="51.0262" gradientUnits="userSpaceOnUse">
<stop stop-color="#FF843F"/>
<stop offset="1" stop-color="#FF9029" stop-opacity="0.24"/>
</linearGradient>
<linearGradient id="paint9_linear" x1="87.751" y1="33.0792" x2="81.0372" y2="55.5017" gradientUnits="userSpaceOnUse">
<stop stop-color="#F70000"/>
<stop offset="1" stop-color="#ED0C0C" stop-opacity="0.72"/>
</linearGradient>
<linearGradient id="paint10_linear" x1="87.751" y1="33.0792" x2="81.0372" y2="55.5017" gradientUnits="userSpaceOnUse">
<stop stop-color="#F70000"/>
<stop offset="1" stop-color="#ED0C0C" stop-opacity="0.72"/>
</linearGradient>
<linearGradient id="paint11_linear" x1="87.751" y1="33.0792" x2="81.0372" y2="55.5017" gradientUnits="userSpaceOnUse">
<stop stop-color="#F70000"/>
<stop offset="1" stop-color="#ED0C0C" stop-opacity="0.72"/>
</linearGradient>
<linearGradient id="paint12_linear" x1="86.6741" y1="37.4383" x2="83.1181" y2="49.3146" gradientUnits="userSpaceOnUse">
<stop stop-color="#FF843F"/>
<stop offset="1" stop-color="#FF9029" stop-opacity="0.24"/>
</linearGradient>
<linearGradient id="paint13_linear" x1="57.6941" y1="35.6758" x2="56.5534" y2="41.3479" gradientUnits="userSpaceOnUse">
<stop stop-color="#FF4646"/>
<stop offset="1" stop-color="#FFA5A5"/>
</linearGradient>
<linearGradient id="paint14_linear" x1="-1.8078" y1="-4.11974" x2="5.6594" y2="-3.17336" gradientUnits="userSpaceOnUse">
<stop offset="0.416667" stop-color="#F5CECE"/>
<stop offset="1" stop-color="#FFE4E4" stop-opacity="0.22"/>
</linearGradient>
<linearGradient id="paint15_linear" x1="-1.8078" y1="-4.11974" x2="5.6594" y2="-3.17336" gradientUnits="userSpaceOnUse">
<stop offset="0.416667" stop-color="#F5CECE"/>
<stop offset="1" stop-color="#FFE4E4" stop-opacity="0.22"/>
</linearGradient>
<linearGradient id="paint16_linear" x1="155.851" y1="40.8864" x2="148.223" y2="67.2393" gradientUnits="userSpaceOnUse">
<stop/>
<stop offset="1" stop-color="#FF3C3C"/>
</linearGradient>
<linearGradient id="paint17_linear" x1="158.687" y1="34.7412" x2="151.059" y2="61.094" gradientUnits="userSpaceOnUse">
<stop stop-color="#C95858"/>
<stop offset="0.479167" stop-color="#FF2F93"/>
<stop offset="1" stop-color="#FFB7B7"/>
</linearGradient>
<linearGradient id="paint18_linear" x1="3.27205" y1="0" x2="3.27205" y2="9.25071" gradientUnits="userSpaceOnUse">
<stop offset="0.333333" stop-color="#F1B1C8"/>
<stop offset="1" stop-color="#D75151" stop-opacity="0"/>
</linearGradient>
<linearGradient id="paint19_linear" x1="2.58605" y1="0" x2="2.58605" y2="7.36439" gradientUnits="userSpaceOnUse">
<stop offset="0.015625" stop-color="#FF36DF"/>
<stop offset="1" stop-color="#C2B6A8" stop-opacity="0.47"/>
</linearGradient>
<linearGradient id="paint20_linear" x1="14.8115" y1="93.3911" x2="86.6021" y2="18.9085" gradientUnits="userSpaceOnUse">
<stop/>
<stop offset="1" stop-opacity="0"/>
</linearGradient>
<linearGradient id="paint21_linear" x1="-0.930152" y1="-153.598" x2="38.2542" y2="37.849" gradientUnits="userSpaceOnUse">
<stop/>
<stop/>
<stop/>
<stop offset="1" stop-opacity="0"/>
</linearGradient>
<linearGradient id="paint22_linear" x1="138.033" y1="30.1287" x2="153.689" y2="65.3999" gradientUnits="userSpaceOnUse">
<stop stop-color="#DB3A3A"/>
<stop offset="1" stop-opacity="0"/>
</linearGradient>
<linearGradient id="paint23_linear" x1="158.382" y1="51.1631" x2="157.8" y2="51.8192" gradientUnits="userSpaceOnUse">
<stop stop-color="#CC1C1C"/>
<stop offset="1" stop-color="#3C2323" stop-opacity="0"/>
</linearGradient>
<linearGradient id="paint24_linear" x1="24.6435" y1="18.6481" x2="58.1988" y2="-8.30925" gradientUnits="userSpaceOnUse">
<stop stop-color="#A61919"/>
<stop offset="0.21875" stop-color="#AA1717" stop-opacity="0"/>
<stop offset="1" stop-color="#AA1717" stop-opacity="0"/>
</linearGradient>
<linearGradient id="paint25_linear" x1="175.086" y1="44.3874" x2="158.529" y2="74.0311" gradientUnits="userSpaceOnUse">
<stop/>
<stop offset="1" stop-color="#FF3C3C"/>
</linearGradient>
<linearGradient id="paint26_linear" x1="180.143" y1="37.7253" x2="163.586" y2="67.369" gradientUnits="userSpaceOnUse">
<stop stop-color="#C95858"/>
<stop offset="0.479167" stop-color="#FF2F93"/>
<stop offset="1" stop-color="#FFB7B7"/>
</linearGradient>
<linearGradient id="paint27_linear" x1="4.04962" y1="0" x2="4.04962" y2="11.452" gradientUnits="userSpaceOnUse">
<stop offset="0.333333" stop-color="#F1B1C8"/>
<stop offset="1" stop-color="#D75151" stop-opacity="0"/>
</linearGradient>
<linearGradient id="paint28_linear" x1="3.2006" y1="0" x2="3.2006" y2="9.11684" gradientUnits="userSpaceOnUse">
<stop offset="0.015625" stop-color="#FF36DF"/>
<stop offset="1" stop-color="#C2B6A8" stop-opacity="0.47"/>
</linearGradient>
<linearGradient id="paint29_linear" x1="18.336" y1="93.3911" x2="87.9826" y2="3.93849" gradientUnits="userSpaceOnUse">
<stop/>
<stop offset="1" stop-opacity="0"/>
</linearGradient>
<linearGradient id="paint30_linear" x1="-1.15149" y1="-153.598" x2="30.9494" y2="40.5617" gradientUnits="userSpaceOnUse">
<stop/>
<stop/>
<stop/>
<stop offset="1" stop-opacity="0"/>
</linearGradient>
<linearGradient id="paint31_linear" x1="156.535" y1="26.4006" x2="165.823" y2="73.5219" gradientUnits="userSpaceOnUse">
<stop stop-color="#DB3A3A"/>
<stop offset="1" stop-opacity="0"/>
</linearGradient>
<linearGradient id="paint32_linear" x1="175.379" y1="57.5471" x2="174.5" y2="58.175" gradientUnits="userSpaceOnUse">
<stop stop-color="#CC1C1C"/>
<stop offset="1" stop-color="#3C2323" stop-opacity="0"/>
</linearGradient>
<linearGradient id="paint33_linear" x1="30.5071" y1="18.6481" x2="64.8693" y2="-15.5259" gradientUnits="userSpaceOnUse">
<stop stop-color="#A61919"/>
<stop offset="0.21875" stop-color="#AA1717" stop-opacity="0"/>
<stop offset="1" stop-color="#AA1717" stop-opacity="0"/>
</linearGradient>
<linearGradient id="paint34_linear" x1="113.808" y1="11.6537" x2="113.808" y2="25" gradientUnits="userSpaceOnUse">
<stop stop-color="#FDFFA6"/>
<stop offset="1" stop-color="#FFA337" stop-opacity="0.82"/>
</linearGradient>
<linearGradient id="paint35_linear" x1="96.8521" y1="133.586" x2="259.237" y2="43.2812" gradientUnits="userSpaceOnUse">
<stop offset="0.291667" stop-opacity="0"/>
<stop offset="0.671875" stop-color="#92BAF7" stop-opacity="0.536765"/>
<stop offset="1" stop-color="#8DBBFF" stop-opacity="0.64"/>
</linearGradient>
<linearGradient id="paint36_linear" x1="121.459" y1="133.008" x2="-37.2832" y2="29.0788" gradientUnits="userSpaceOnUse">
<stop offset="0.291667" stop-opacity="0"/>
<stop offset="1" stop-color="#8DBBFF"/>
</linearGradient>
<linearGradient id="paint37_linear" x1="92.6742" y1="103.985" x2="39.1865" y2="25.5911" gradientUnits="userSpaceOnUse">
<stop offset="0.317708" stop-opacity="0"/>
<stop offset="0.5625" stop-color="#9CB4D9" stop-opacity="0.358779"/>
<stop offset="1" stop-color="#8DBBFF"/>
</linearGradient>
<linearGradient id="paint38_linear" x1="114.795" y1="104.309" x2="175.773" y2="31.5881" gradientUnits="userSpaceOnUse">
<stop offset="0.317708" stop-opacity="0"/>
<stop offset="0.5625" stop-color="#9CB4D9" stop-opacity="0.358779"/>
<stop offset="1" stop-color="#8DBBFF"/>
</linearGradient>
<linearGradient id="paint39_linear" x1="173.871" y1="101.54" x2="182.372" y2="101.986" gradientUnits="userSpaceOnUse">
<stop stop-color="#FFC164"/>
<stop offset="1" stop-color="#328500"/>
</linearGradient>
<linearGradient id="paint40_linear" x1="145.451" y1="87.956" x2="172.136" y2="104.613" gradientUnits="userSpaceOnUse">
<stop stop-color="#FFF500" stop-opacity="0.29"/>
<stop offset="1" stop-color="#FF951A"/>
</linearGradient>
<linearGradient id="paint41_linear" x1="171.538" y1="105.624" x2="174.27" y2="112.673" gradientUnits="userSpaceOnUse">
<stop stop-color="#FF9839"/>
<stop offset="1" stop-color="#238539" stop-opacity="0"/>
<stop offset="1" stop-color="#FFF844"/>
</linearGradient>
<linearGradient id="paint42_linear" x1="172.573" y1="103.763" x2="181.777" y2="109.553" gradientUnits="userSpaceOnUse">
<stop stop-color="#FBBA59"/>
<stop offset="1" stop-color="#1F6F18"/>
</linearGradient>
<linearGradient id="paint43_linear" x1="38.6731" y1="74.0476" x2="10.3609" y2="95.0013" gradientUnits="userSpaceOnUse">
<stop stop-color="#EBA031"/>
<stop offset="1" stop-color="#F2D120" stop-opacity="0.74"/>
</linearGradient>
<linearGradient id="paint44_linear" x1="49.774" y1="62.714" x2="49.774" y2="81.286" gradientUnits="userSpaceOnUse">
<stop offset="0.567708" stop-color="#FFF4E8"/>
<stop offset="1" stop-color="#F2A737"/>
</linearGradient>
<linearGradient id="paint45_linear" x1="60.0262" y1="94.8819" x2="57.9633" y2="110.954" gradientUnits="userSpaceOnUse">
<stop stop-color="#FF1D1D"/>
<stop offset="1" stop-color="#FFD76F" stop-opacity="0.38"/>
</linearGradient>
<linearGradient id="paint46_linear" x1="-2.11834" y1="4.81557" x2="33.8939" y2="3.34707" gradientUnits="userSpaceOnUse">
<stop offset="0.0837381" stop-color="#4FDB7F"/>
<stop offset="1" stop-color="#FCFF81" stop-opacity="0.35"/>
</linearGradient>
</defs>
</svg>
