<svg width="167" height="116" viewBox="0 0 167 116" fill="none" xmlns="http://www.w3.org/2000/svg">
<ellipse cx="103.5" cy="48" rx="27.5" ry="27" fill="url(#paint0_linear)"/>
<ellipse cx="138.5" cy="65.5" rx="28.5" ry="25.5" fill="url(#paint1_linear)"/>
<ellipse cx="131.5" cy="18.5" rx="16.5" ry="15.5" fill="url(#paint2_linear)"/>
<ellipse cx="41.5" cy="37.5" rx="41.5" ry="37.5" fill="url(#paint3_linear)"/>
<path d="M68 82.5C68 97.6878 57.031 110 43.5 110C29.969 110 19 97.6878 19 82.5C19 67.3122 28 61 43.5 55C43.5 55 68 62 68 82.5Z" fill="url(#paint4_linear)"/>
<rect x="37" y="35" width="10" height="29" fill="url(#paint5_linear)"/>
<circle cx="37" cy="32" r="6" fill="#FFF4E8"/>
<circle cx="46" cy="32" r="6" fill="#FFF4E8"/>
<path d="M133.576 87.8067C135.128 97.01 121.597 106.965 103.353 110.042C85.1092 113.119 69.0613 108.152 67.5092 98.949C63.602 75.7818 94.6338 88.9403 102.332 75.938C120.576 72.8611 130.766 71.1426 133.576 87.8067Z" fill="url(#paint6_linear)"/>
<path d="M130.613 79.9464C132.165 89.1497 119.881 98.8944 103.176 101.712C86.4708 104.529 71.6703 99.3523 70.1181 90.1489C68.566 80.9456 87.3607 85.9066 94.2476 73.041C110.953 70.2236 129.061 70.743 130.613 79.9464Z" fill="url(#paint7_linear)"/>
<ellipse rx="4.04182" ry="5.81963" transform="matrix(0.490729 0.871312 -0.870815 0.491612 107.732 79.1986)" fill="url(#paint8_linear)"/>
<ellipse rx="3.19443" ry="4.63295" transform="matrix(0.490729 0.871312 -0.870815 0.491612 106.416 79.8409)" fill="url(#paint9_linear)"/>
<line y1="-0.5" x2="18.3565" y2="-0.5" transform="matrix(0.861649 -0.507505 0.506594 0.862185 87.3657 94.6835)" stroke="url(#paint10_linear)"/>
<line y1="-0.5" x2="18.3565" y2="-0.5" transform="matrix(0.861649 -0.507505 0.506594 0.862185 95.8633 96.5301)" stroke="url(#paint11_linear)"/>
<path d="M84.8516 85.2847L115.237 94.5466" stroke="url(#paint12_linear)"/>
<path d="M90.2603 82.3604L122.026 92.1339" stroke="url(#paint13_linear)"/>
<line y1="-0.5" x2="34.683" y2="-0.5" transform="matrix(0.964848 0.262809 -0.261644 0.965164 80.6138 89.2792)" stroke="url(#paint14_linear)"/>
<line y1="-0.5" x2="18.3565" y2="-0.5" transform="matrix(0.861649 -0.507505 0.506594 0.862185 81.1216 91.637)" stroke="#A03535"/>
<path d="M161.795 93.3721C161.161 104.899 142.095 113.223 119.21 111.965C96.3249 110.707 78.2864 100.343 78.9201 88.8163C80.5151 59.8012 114.427 84.1307 127.275 70.5409C150.16 71.799 162.942 72.5017 161.795 93.3721Z" fill="url(#paint15_linear)"/>
<path d="M160.358 83.0817C159.724 94.6081 142.223 103.018 121.268 101.866C100.313 100.714 83.8387 90.4365 84.4724 78.91C85.106 67.3836 106.465 78.4891 118.295 64.8434C139.251 65.9954 160.991 71.5552 160.358 83.0817Z" fill="url(#paint16_linear)"/>
<ellipse cx="132.911" cy="75.9458" rx="5" ry="7.20808" transform="rotate(73.302 132.911 75.9458)" fill="url(#paint17_linear)"/>
<ellipse cx="131.147" cy="76.3626" rx="3.95173" ry="5.73827" transform="rotate(73.302 131.147 76.3626)" fill="url(#paint18_linear)"/>
<line x1="103.926" y1="88.6034" x2="125.579" y2="81.6729" stroke="url(#paint19_linear)"/>
<line x1="113.691" y1="93.1463" x2="135.345" y2="86.2158" stroke="url(#paint20_linear)"/>
<path d="M103.603 77.0554L137.796 96.5076" stroke="url(#paint21_linear)"/>
<path d="M110.936 75.0008L146.658 95.4463" stroke="url(#paint22_linear)"/>
<line x1="97.6262" y1="80.2782" x2="135.579" y2="100.392" stroke="url(#paint23_linear)"/>
<line x1="97.2109" y1="83.2267" x2="118.864" y2="76.2962" stroke="#A03535"/>
<defs>
<linearGradient id="paint0_linear" x1="103.831" y1="21" x2="103.44" y2="74.9996" gradientUnits="userSpaceOnUse">
<stop offset="0.0885417" stop-color="#FFE8AE"/>
<stop offset="0.833333" stop-color="#DC9EEC" stop-opacity="0.2"/>
</linearGradient>
<linearGradient id="paint1_linear" x1="138.5" y1="40" x2="138.5" y2="91" gradientUnits="userSpaceOnUse">
<stop stop-color="#B67DFF"/>
<stop offset="1" stop-color="#7ADDD7" stop-opacity="0"/>
</linearGradient>
<linearGradient id="paint2_linear" x1="131.5" y1="3" x2="131.5" y2="34" gradientUnits="userSpaceOnUse">
<stop stop-color="#D679BC" stop-opacity="0.64"/>
<stop offset="1" stop-color="#40FFF4" stop-opacity="0.37"/>
</linearGradient>
<linearGradient id="paint3_linear" x1="42" y1="-3.22574e-09" x2="41.5" y2="75" gradientUnits="userSpaceOnUse">
<stop offset="0.0885417" stop-color="#BA0CF7"/>
<stop offset="0.833333" stop-color="#DC9EEC" stop-opacity="0.2"/>
</linearGradient>
<linearGradient id="paint4_linear" x1="43.5" y1="55" x2="43.5" y2="110" gradientUnits="userSpaceOnUse">
<stop stop-color="#EBA031"/>
<stop offset="1" stop-color="#F2D120" stop-opacity="0.74"/>
</linearGradient>
<linearGradient id="paint5_linear" x1="42" y1="35" x2="42" y2="64" gradientUnits="userSpaceOnUse">
<stop offset="0.567708" stop-color="#FFF4E8"/>
<stop offset="1" stop-color="#F2A737"/>
</linearGradient>
<linearGradient id="paint6_linear" x1="97.7322" y1="76.7137" x2="103.353" y2="110.042" gradientUnits="userSpaceOnUse">
<stop/>
<stop offset="1" stop-color="#FF3C3C"/>
</linearGradient>
<linearGradient id="paint7_linear" x1="97.5552" y1="68.3835" x2="103.176" y2="101.712" gradientUnits="userSpaceOnUse">
<stop stop-color="#C95858"/>
<stop offset="0.479167" stop-color="#FF2F93"/>
<stop offset="1" stop-color="#FFB7B7"/>
</linearGradient>
<linearGradient id="paint8_linear" x1="4.04182" y1="0" x2="4.04182" y2="11.6393" gradientUnits="userSpaceOnUse">
<stop offset="0.333333" stop-color="#F1B1C8"/>
<stop offset="1" stop-color="#D75151" stop-opacity="0"/>
</linearGradient>
<linearGradient id="paint9_linear" x1="3.19443" y1="0" x2="3.19443" y2="9.2659" gradientUnits="userSpaceOnUse">
<stop offset="0.015625" stop-color="#FF36DF"/>
<stop offset="1" stop-color="#C2B6A8" stop-opacity="0.47"/>
</linearGradient>
<linearGradient id="paint10_linear" x1="18.6304" y1="93.3911" x2="87.9973" y2="2.8672" gradientUnits="userSpaceOnUse">
<stop/>
<stop offset="1" stop-opacity="0"/>
</linearGradient>
<linearGradient id="paint11_linear" x1="-1.16998" y1="-153.598" x2="30.45" y2="40.7238" gradientUnits="userSpaceOnUse">
<stop/>
<stop/>
<stop/>
<stop offset="1" stop-opacity="0"/>
</linearGradient>
<linearGradient id="paint12_linear" x1="71.5563" y1="74.4082" x2="108.038" y2="105.924" gradientUnits="userSpaceOnUse">
<stop stop-color="#DB3A3A"/>
<stop offset="1" stop-opacity="0"/>
</linearGradient>
<linearGradient id="paint13_linear" x1="106.285" y1="86.7252" x2="106.001" y2="87.7688" gradientUnits="userSpaceOnUse">
<stop stop-color="#CC1C1C"/>
<stop offset="1" stop-color="#3C2323" stop-opacity="0"/>
</linearGradient>
<linearGradient id="paint14_linear" x1="30.9609" y1="18.6481" x2="65.3222" y2="-16.0333" gradientUnits="userSpaceOnUse">
<stop stop-color="#A61919"/>
<stop offset="0.21875" stop-color="#AA1717" stop-opacity="0"/>
<stop offset="1" stop-color="#AA1717" stop-opacity="0"/>
</linearGradient>
<linearGradient id="paint15_linear" x1="121.505" y1="70.2237" x2="119.21" y2="111.965" gradientUnits="userSpaceOnUse">
<stop/>
<stop offset="1" stop-color="#FF3C3C"/>
</linearGradient>
<linearGradient id="paint16_linear" x1="123.562" y1="60.1254" x2="121.268" y2="101.866" gradientUnits="userSpaceOnUse">
<stop stop-color="#C95858"/>
<stop offset="0.479167" stop-color="#FF2F93"/>
<stop offset="1" stop-color="#FFB7B7"/>
</linearGradient>
<linearGradient id="paint17_linear" x1="132.911" y1="68.7377" x2="132.911" y2="83.1539" gradientUnits="userSpaceOnUse">
<stop offset="0.333333" stop-color="#F1B1C8"/>
<stop offset="1" stop-color="#D75151" stop-opacity="0"/>
</linearGradient>
<linearGradient id="paint18_linear" x1="131.147" y1="70.6243" x2="131.147" y2="82.1009" gradientUnits="userSpaceOnUse">
<stop offset="0.015625" stop-color="#FF36DF"/>
<stop offset="1" stop-color="#C2B6A8" stop-opacity="0.47"/>
</linearGradient>
<linearGradient id="paint19_linear" x1="154.523" y1="170.992" x2="184.075" y2="52.4353" gradientUnits="userSpaceOnUse">
<stop/>
<stop offset="1" stop-opacity="0"/>
</linearGradient>
<linearGradient id="paint20_linear" x1="65.6422" y1="-52.2233" x2="149.949" y2="126.674" gradientUnits="userSpaceOnUse">
<stop/>
<stop/>
<stop/>
<stop offset="1" stop-opacity="0"/>
</linearGradient>
<linearGradient id="paint21_linear" x1="90.5022" y1="60.3111" x2="125.92" y2="108.328" gradientUnits="userSpaceOnUse">
<stop stop-color="#DB3A3A"/>
<stop offset="1" stop-opacity="0"/>
</linearGradient>
<linearGradient id="paint22_linear" x1="129.11" y1="84.6324" x2="128.484" y2="85.8147" gradientUnits="userSpaceOnUse">
<stop stop-color="#CC1C1C"/>
<stop offset="1" stop-color="#3C2323" stop-opacity="0"/>
</linearGradient>
<linearGradient id="paint23_linear" x1="122.54" y1="115.152" x2="171.785" y2="93.8232" gradientUnits="userSpaceOnUse">
<stop stop-color="#A61919"/>
<stop offset="0.21875" stop-color="#AA1717" stop-opacity="0"/>
<stop offset="1" stop-color="#AA1717" stop-opacity="0"/>
</linearGradient>
</defs>
</svg>
