<svg width="159" height="115" viewBox="0 0 159 115" fill="none" xmlns="http://www.w3.org/2000/svg">
<ellipse cx="28.5" cy="47.5" rx="28.5" ry="25.5" fill="url(#paint0_linear)"/>
<ellipse cx="54.5" cy="15.5" rx="16.5" ry="15.5" fill="url(#paint1_linear)"/>
<path d="M159 39.5C159 60.2107 140.42 77 117.5 77C94.5802 77 76 60.2107 76 39.5C76 18.7893 94.5802 2 117.5 2C140.42 2 159 18.7893 159 39.5Z" fill="url(#paint2_linear)"/>
<path d="M98 52.5527C98 95.5079 89.7173 86.1513 79.5 86.1513C69.2827 86.1513 61 93.8067 61 52.5527C61 33.9968 68.5 27.0348 79.5 18.9542C88 27.0348 98 33.9968 98 52.5527Z" fill="url(#paint3_linear)"/>
<path d="M97.5 52.5527C97.5 63.2814 96.9824 70.7156 96.0542 75.835C95.123 80.9709 93.793 83.6892 92.2459 85.0895C90.7294 86.4621 88.9146 86.646 86.7474 86.4443C85.9557 86.3706 85.1406 86.2483 84.2854 86.12C83.9627 86.0716 83.6342 86.0223 83.2991 85.9745C82.0883 85.8016 80.8133 85.6513 79.5 85.6513C78.194 85.6513 76.9241 85.7736 75.7185 85.9025C75.5656 85.9189 75.4139 85.9353 75.2634 85.9516C74.2183 86.0648 73.2295 86.1719 72.2825 86.2031C70.129 86.2743 68.2994 85.9481 66.7664 84.4631C65.2061 82.9517 63.8759 80.168 62.9456 75.116C62.0175 70.0765 61.5 62.8551 61.5 52.5527C61.5 43.3467 63.359 37.0667 66.5459 32.095C69.6764 27.2115 74.1131 23.5478 79.4597 19.6047C80.2857 20.3846 81.1208 21.1523 81.9556 21.9197C85.3623 25.0515 88.7643 28.1789 91.5284 32.1127C95.0316 37.0984 97.5 43.3774 97.5 52.5527Z" stroke="url(#paint4_linear)" stroke-opacity="0.13"/>
<path d="M73 13H86V30.8625H73V13Z" fill="url(#paint5_linear)"/>
<path d="M97 58.5069C97 71.4257 89.165 81.8984 79.5 81.8984C69.835 81.8984 62 71.4257 62 58.5069C62 45.5882 69.835 45.3227 79.5 45.3227C89.165 45.3227 97 45.5882 97 58.5069Z" fill="url(#paint6_linear)"/>
<ellipse cx="79.5" cy="49.5" rx="13.5" ry="3.5" fill="#FFF3D3"/>
<path d="M86.2362 81.003L92.7457 71.3165L97.6283 78.4691L86.2362 81.003Z" fill="url(#paint7_linear)"/>
<path d="M35.9055 93.5172L85.6347 76.6635L88.8952 93.8569L35.9055 93.5172Z" fill="url(#paint8_linear)"/>
<path d="M88.4691 90.6446L99.6882 90.151L97.1381 97.9319L88.4691 90.6446Z" fill="url(#paint9_linear)"/>
<path d="M87.4203 86.2865L99.8316 79.4337L101.502 87.9313L87.4203 86.2865Z" fill="url(#paint10_linear)"/>
<path d="M63 70.0001C63 81.0458 57.5 94.5 45 86.5C33.5 94 27 81.0458 27 70.0001C27 58.9544 36 54.5001 45 60C55 53.5 63 58.9544 63 70.0001Z" fill="url(#paint11_linear)"/>
<line x1="45.0041" y1="60.9095" x2="46.0041" y2="49.9095" stroke="black" stroke-width="2"/>
<ellipse cx="57.7247" cy="56.4541" rx="13.0158" ry="5.3846" transform="rotate(-24.5563 57.7247 56.4541)" fill="url(#paint12_linear)"/>
<g style="mix-blend-mode:darken">
<path d="M29.303 66.056C29.303 73.0281 25.7428 81.5204 17.6515 76.4708C10.2075 81.2048 6 73.0281 6 66.056C6 59.0839 11.8258 56.2723 17.6515 59.7439C24.1246 55.641 29.303 59.0839 29.303 66.056Z" fill="url(#paint13_linear)"/>
<line y1="-1" x2="6.97336" y2="-1" transform="matrix(0.0928255 -0.995682 0.996094 0.0883015 18.2988 60.3751)" stroke="black" stroke-width="2"/>
<ellipse rx="8.38937" ry="3.41392" transform="matrix(0.913437 -0.40698 0.424299 0.905522 25.8885 57.5056)" fill="url(#paint14_linear)"/>
</g>
<path d="M103.217 57.8711L129.637 70.1575L74.6186 63.4525L103.217 57.8711Z" fill="#FAEF8F"/>
<path d="M73.0234 63.3218L129.023 69.4797V85.8218L73.0234 81.1113V63.3218Z" fill="url(#paint15_linear)"/>
<defs>
<linearGradient id="paint0_linear" x1="28.5" y1="22" x2="28.5" y2="73" gradientUnits="userSpaceOnUse">
<stop stop-color="#B67DFF"/>
<stop offset="1" stop-color="#7ADDD7" stop-opacity="0"/>
</linearGradient>
<linearGradient id="paint1_linear" x1="54.5" y1="0" x2="54.5" y2="31" gradientUnits="userSpaceOnUse">
<stop stop-color="#D679BC" stop-opacity="0.64"/>
<stop offset="1" stop-color="#40FFF4" stop-opacity="0.37"/>
</linearGradient>
<linearGradient id="paint2_linear" x1="115.5" y1="-36" x2="137.5" y2="125" gradientUnits="userSpaceOnUse">
<stop offset="0.338542" stop-color="#6532F5"/>
<stop offset="0.598958" stop-color="#FF7CFA" stop-opacity="0.19"/>
</linearGradient>
<linearGradient id="paint3_linear" x1="79.5" y1="18.9542" x2="79.5" y2="87.0129" gradientUnits="userSpaceOnUse">
<stop offset="0.145833" stop-color="#DEE1E1" stop-opacity="0.22"/>
<stop offset="1" stop-color="#DEE1E1" stop-opacity="0.84"/>
</linearGradient>
<linearGradient id="paint4_linear" x1="79.5" y1="18.9542" x2="79.5" y2="87.0129" gradientUnits="userSpaceOnUse">
<stop stop-opacity="0.04"/>
<stop offset="1" stop-opacity="0.29"/>
</linearGradient>
<linearGradient id="paint5_linear" x1="79.5" y1="13" x2="79.5" y2="30.8625" gradientUnits="userSpaceOnUse">
<stop stop-color="#EEF0F0" stop-opacity="0.72"/>
<stop offset="1" stop-color="#DEFFFD" stop-opacity="0"/>
</linearGradient>
<linearGradient id="paint6_linear" x1="79.5" y1="35.1155" x2="79.5" y2="81.8984" gradientUnits="userSpaceOnUse">
<stop stop-color="#FFFDEA"/>
<stop offset="1" stop-color="#FFFEFE"/>
</linearGradient>
<linearGradient id="paint7_linear" x1="86.2362" y1="81.003" x2="98.1706" y2="72.8561" gradientUnits="userSpaceOnUse">
<stop stop-color="#FFC164"/>
<stop offset="1" stop-color="#328500"/>
</linearGradient>
<linearGradient id="paint8_linear" x1="36.2866" y1="95.4281" x2="87.3462" y2="85.244" gradientUnits="userSpaceOnUse">
<stop stop-color="#FFF500" stop-opacity="0.29"/>
<stop offset="1" stop-color="#FF951A"/>
</linearGradient>
<linearGradient id="paint9_linear" x1="88.4691" y1="90.6444" x2="101.438" y2="95.4061" gradientUnits="userSpaceOnUse">
<stop stop-color="#FF9839"/>
<stop offset="1" stop-color="#238539" stop-opacity="0"/>
<stop offset="1" stop-color="#FFF844"/>
</linearGradient>
<linearGradient id="paint10_linear" x1="87.4203" y1="86.2865" x2="105.082" y2="82.8145" gradientUnits="userSpaceOnUse">
<stop stop-color="#FBBA59"/>
<stop offset="1" stop-color="#1F6F18"/>
</linearGradient>
<linearGradient id="paint11_linear" x1="45" y1="57.2051" x2="45" y2="88.9227" gradientUnits="userSpaceOnUse">
<stop stop-color="#FF1D1D"/>
<stop offset="1" stop-color="#FFD76F" stop-opacity="0.38"/>
</linearGradient>
<linearGradient id="paint12_linear" x1="40.8586" y1="60.3423" x2="106.327" y2="57.8223" gradientUnits="userSpaceOnUse">
<stop offset="0.0837381" stop-color="#4FDB7F"/>
<stop offset="1" stop-color="#FCFF81" stop-opacity="0.35"/>
</linearGradient>
<linearGradient id="paint13_linear" x1="17.6515" y1="57.9797" x2="17.6515" y2="78" gradientUnits="userSpaceOnUse">
<stop offset="0.266569" stop-color="#47F459"/>
<stop offset="1" stop-color="#FFD76F" stop-opacity="0.38"/>
</linearGradient>
<linearGradient id="paint14_linear" x1="-2.48176" y1="5.87912" x2="39.7143" y2="4.22793" gradientUnits="userSpaceOnUse">
<stop offset="0.0837381" stop-color="#4FDB7F"/>
<stop offset="1" stop-color="#FCFF81" stop-opacity="0.35"/>
</linearGradient>
<linearGradient id="paint15_linear" x1="101.023" y1="63.3218" x2="101.023" y2="85.8218" gradientUnits="userSpaceOnUse">
<stop stop-color="#E6D370"/>
<stop offset="1" stop-color="#FDFF87" stop-opacity="0.46"/>
</linearGradient>
</defs>
</svg>
